<svg width="18" height="18" viewBox="0 0 18 18" fill="none" xmlns="http://www.w3.org/2000/svg">
<rect x="0.0722656" width="17.5918" height="17.5918" rx="2.19897" fill="#3FA96A" fill-opacity="0.2"/>
<mask id="mask0_1476_1004" style="mask-type:alpha" maskUnits="userSpaceOnUse" x="4" y="4" width="10" height="10">
<rect x="4.47021" y="4.39795" width="8.79588" height="8.79588" fill="#D9D9D9"/>
</mask>
<g mask="url(#mask0_1476_1004)">
<path d="M9.60127 11.9935V11.2422C10.151 11.0834 10.5939 10.778 10.9298 10.3259C11.2658 9.87393 11.4337 9.36084 11.4337 8.78667C11.4337 8.21249 11.2658 7.6994 10.9298 7.24739C10.5939 6.79538 10.151 6.48996 9.60127 6.33115V5.57983C10.3587 5.75087 10.9756 6.1341 11.4521 6.72953C11.9285 7.32521 12.1667 8.01092 12.1667 8.78667C12.1667 9.56241 11.9285 10.248 11.4521 10.8434C10.9756 11.4391 10.3587 11.8225 9.60127 11.9935ZM5.56982 9.89531V7.69634H7.0358L8.86828 5.86387V11.7278L7.0358 9.89531H5.56982ZM9.60127 10.2618V7.31152C9.88836 7.4459 10.1129 7.64748 10.2749 7.91624C10.4366 8.185 10.5175 8.4782 10.5175 8.79583C10.5175 9.10735 10.4366 9.3959 10.2749 9.66149C10.1129 9.92732 9.88836 10.1274 9.60127 10.2618Z" fill="#3FA96A"/>
</g>
</svg>
