<svg width="49" height="49" viewBox="0 0 49 49" fill="none" xmlns="http://www.w3.org/2000/svg">
<rect x="0.236328" y="0.686035" width="48" height="48" rx="4" fill="white"/>
<g clip-path="url(#clip0_1476_929)">
<path d="M24.3242 24.7736C24.3242 22.1401 26.4591 20.0051 29.0927 20.0051C31.7262 20.0051 33.8612 22.1401 33.8612 24.7736C33.8612 27.4072 31.7262 29.5421 29.0927 29.5421C26.4591 29.5421 24.3242 27.4072 24.3242 24.7736Z" fill="#1ABCFE"/>
<path d="M14.7871 34.3105C14.7871 31.677 16.922 29.542 19.5556 29.542H24.3241V34.3105C24.3241 36.944 22.1892 39.0789 19.5556 39.0789C16.922 39.0789 14.7871 36.944 14.7871 34.3105Z" fill="#0ACF83"/>
<path d="M24.3242 10.468V20.0049H29.0927C31.7263 20.0049 33.8612 17.87 33.8612 15.2365C33.8612 12.6029 31.7263 10.468 29.0927 10.468H24.3242Z" fill="#FF7262"/>
<path d="M14.7871 15.2362C14.7871 17.8698 16.922 20.0047 19.5556 20.0047H24.3241V10.4678H19.5556C16.922 10.4678 14.7871 12.6027 14.7871 15.2362Z" fill="#F24E1E"/>
<path d="M14.7871 24.7736C14.7871 27.4072 16.922 29.5421 19.5556 29.5421H24.3241V20.0051H19.5556C16.922 20.0051 14.7871 22.1401 14.7871 24.7736Z" fill="#A259FF"/>
</g>
<defs>
<clipPath id="clip0_1476_929">
<rect width="19.2701" height="28.9051" fill="white" transform="translate(14.689 10.321)"/>
</clipPath>
</defs>
</svg>
