<svg width="331" height="17" viewBox="0 0 331 17" fill="none" xmlns="http://www.w3.org/2000/svg">
<g clip-path="url(#clip0_1476_942)">
<path d="M8.09175 12.288H1.23062C0.775459 12.288 0.354014 12.0525 0.134862 11.6488C-0.101147 11.1778 -0.0168578 10.6228 0.354014 10.2695L5.12477 5.50943H1.70264C0.758602 5.50943 0 4.7357 0 3.81059H6.32168C6.77684 3.81059 7.19829 4.04607 7.41744 4.44975C7.65345 4.92072 7.56916 5.47579 7.19829 5.82901L2.42752 10.5891H6.38911C7.33315 10.5891 8.09175 11.3629 8.09175 12.288ZM35.2665 3.67603C34.2888 3.67603 33.3953 4.09653 32.7884 4.78616C32.1816 4.11335 31.2881 3.67603 30.3103 3.67603C28.4897 3.67603 26.9894 5.22348 26.9894 7.04007V12.288C27.9334 12.288 28.692 11.5311 28.692 10.5891V7.02325C28.692 6.1486 29.3663 5.40851 30.2429 5.37487C31.1701 5.34123 31.9287 6.08131 31.9287 6.98961V10.5891C31.9287 11.5311 32.6873 12.288 33.6313 12.288V7.02325C33.6313 6.1486 34.3056 5.40851 35.1823 5.37487C36.1094 5.34123 36.868 6.08131 36.868 6.98961V10.5891C36.868 11.5311 37.6266 12.288 38.5707 12.288V7.04007C38.5875 5.22348 37.0872 3.67603 35.2665 3.67603ZM16.6892 8.04928C16.6892 10.4546 14.7169 12.4225 12.3062 12.4225C9.87868 12.4225 7.92317 10.4546 7.92317 8.04928C7.92317 5.64399 9.89553 3.67603 12.3062 3.67603C14.7169 3.67603 16.6892 5.64399 16.6892 8.04928ZM14.9866 8.04928C14.9866 6.5691 13.7897 5.37487 12.3062 5.37487C10.8227 5.37487 9.62581 6.5691 9.62581 8.04928C9.62581 9.52946 10.8227 10.7237 12.3062 10.7237C13.7897 10.7237 14.9866 9.52946 14.9866 8.04928ZM26.1465 8.04928C26.1465 10.4546 24.1741 12.4225 21.7634 12.4225C19.3359 12.4225 17.3804 10.4546 17.3804 8.04928C17.3804 5.64399 19.3528 3.67603 21.7634 3.67603C24.1741 3.67603 26.1465 5.64399 26.1465 8.04928ZM24.4438 8.04928C24.4438 6.5691 23.2469 5.37487 21.7634 5.37487C20.2799 5.37487 19.083 6.5691 19.083 8.04928C19.083 9.52946 20.2799 10.7237 21.7634 10.7237C23.2469 10.7237 24.4438 9.52946 24.4438 8.04928Z" fill="white"/>
</g>
<path fill-rule="evenodd" clip-rule="evenodd" d="M99.11 8.31798C99.11 5.56683 97.7809 3.396 95.2406 3.396C92.6895 3.396 91.146 5.56683 91.146 8.29649C91.146 11.5312 92.9682 13.1647 95.5836 13.1647C96.8591 13.1647 97.8238 12.8746 98.5527 12.4662V10.3169C97.8238 10.6823 96.9877 10.9079 95.9266 10.9079C94.8868 10.9079 93.965 10.5426 93.8471 9.27444H99.0886C99.0886 9.13473 99.11 8.5759 99.11 8.31798ZM93.815 7.29705C93.815 6.08267 94.5546 5.57758 95.2298 5.57758C95.8837 5.57758 96.5804 6.08267 96.5804 7.29705H93.815Z" fill="white"/>
<path fill-rule="evenodd" clip-rule="evenodd" d="M87.0085 3.396C85.9581 3.396 85.2828 3.89034 84.9076 4.23424L84.7683 3.56794H82.4102V16.0986L85.0898 15.529L85.1006 12.4877C85.4864 12.7671 86.0545 13.1647 86.9978 13.1647C88.9164 13.1647 90.6636 11.6172 90.6636 8.21052C90.6529 5.09397 88.8843 3.396 87.0085 3.396ZM86.3654 10.8005C85.733 10.8005 85.3578 10.5748 85.1006 10.2954L85.0898 6.30835C85.3685 5.9967 85.7544 5.78176 86.3654 5.78176C87.3408 5.78176 88.0161 6.87793 88.0161 8.28574C88.0161 9.7258 87.3515 10.8005 86.3654 10.8005Z" fill="white"/>
<path fill-rule="evenodd" clip-rule="evenodd" d="M78.7231 2.7619L81.4136 2.18158V0L78.7231 0.569575V2.7619Z" fill="white"/>
<path d="M81.4136 3.57861H78.7231V12.982H81.4136V3.57861Z" fill="white"/>
<path fill-rule="evenodd" clip-rule="evenodd" d="M75.8398 4.37387L75.6683 3.57861H73.353V12.982H76.0327V6.60918C76.6651 5.78169 77.737 5.93214 78.0693 6.05035V3.57861C77.7263 3.44965 76.4722 3.21323 75.8398 4.37387Z" fill="white"/>
<path fill-rule="evenodd" clip-rule="evenodd" d="M70.4801 1.24658L67.8647 1.80541L67.854 10.4135C67.854 12.004 69.0438 13.1754 70.6302 13.1754C71.5091 13.1754 72.1522 13.0142 72.5059 12.8208V10.6392C72.1629 10.7789 70.4694 11.2733 70.4694 9.68274V5.86766H72.5059V3.57862H70.4694L70.4801 1.24658Z" fill="white"/>
<path fill-rule="evenodd" clip-rule="evenodd" d="M63.2343 6.30835C63.2343 5.88923 63.5773 5.72803 64.1454 5.72803C64.96 5.72803 65.989 5.9752 66.8037 6.41582V3.89034C65.914 3.5357 65.0351 3.396 64.1454 3.396C61.9695 3.396 60.5225 4.53515 60.5225 6.43731C60.5225 9.4034 64.5956 8.93055 64.5956 10.2094C64.5956 10.7038 64.1668 10.865 63.5666 10.865C62.6769 10.865 61.5407 10.4996 60.6404 10.0052V12.5629C61.6372 12.9928 62.6448 13.1755 63.5666 13.1755C65.7961 13.1755 67.3289 12.0686 67.3289 10.1449C67.3182 6.94241 63.2343 7.51198 63.2343 6.30835Z" fill="white"/>
<g clip-path="url(#clip1_1476_942)">
<path d="M122.275 11.1873C122.057 11.1878 121.842 11.1302 121.652 11.0204C121.463 10.9106 121.307 10.7526 121.198 10.5625C121.092 10.3737 121.039 10.1595 121.045 9.94284C121.051 9.72618 121.116 9.51522 121.232 9.33257L123.45 5.85045C123.563 5.66331 123.724 5.50964 123.917 5.40515C124.109 5.30066 124.326 5.24908 124.544 5.25569C124.763 5.26093 124.976 5.32415 125.162 5.43889C125.348 5.55363 125.501 5.71577 125.604 5.90871C125.81 6.29957 125.785 6.76984 125.537 7.13675L123.321 10.6189C123.209 10.794 123.054 10.9379 122.871 11.0373C122.688 11.1366 122.483 11.1882 122.275 11.1873Z" fill="white"/>
<path d="M126.079 11.1872C125.631 11.1872 125.22 10.948 125.004 10.5637C124.898 10.3755 124.845 10.1618 124.851 9.94574C124.857 9.72964 124.921 9.51925 125.038 9.33711L127.251 5.86298C127.363 5.67321 127.523 5.5168 127.716 5.40999C127.908 5.30318 128.126 5.24985 128.346 5.25554C128.797 5.2654 129.206 5.51768 129.413 5.91231C129.618 6.30694 129.588 6.78002 129.333 7.14599L127.12 10.6201C127.008 10.7945 126.854 10.9378 126.672 11.0369C126.49 11.136 126.286 11.1877 126.079 11.1872Z" fill="white"/>
<path d="M129.797 11.2162C130.427 11.2162 130.938 10.7159 130.938 10.0986C130.938 9.48134 130.427 8.98096 129.797 8.98096C129.166 8.98096 128.655 9.48134 128.655 10.0986C128.655 10.7159 129.166 11.2162 129.797 11.2162Z" fill="white"/>
<path d="M179.39 9.04584C179.735 9.04584 179.941 9.29107 179.941 9.69275V11.0692H180.41V9.66127C180.41 8.97819 180.088 8.58215 179.483 8.58215C179.246 8.58215 178.87 8.64698 178.646 9.08248C178.594 8.95403 178.508 8.84208 178.398 8.75853C178.287 8.67499 178.156 8.62296 178.018 8.60799C177.931 8.59211 177.843 8.5869 177.755 8.59249C177.562 8.60799 177.219 8.72779 177.091 8.99933V8.6343H176.622V11.0692H177.091V9.75523C177.091 9.24409 177.426 9.04584 177.761 9.04584C178.074 9.04584 178.281 9.2859 178.281 9.68758V11.0692H178.747V9.75523C178.747 9.34839 178.991 9.04114 179.39 9.04584ZM174.901 10.6624C175.116 10.6671 175.322 10.5816 175.472 10.4266C175.623 10.2715 175.702 10.0606 175.695 9.84402C175.695 9.35355 175.334 9.04584 174.901 9.04584C174.469 9.04584 174.109 9.35355 174.109 9.84402C174.1 10.0601 174.18 10.2706 174.329 10.4252C174.479 10.5802 174.684 10.6662 174.898 10.6624H174.901ZM174.901 11.119C174.217 11.119 173.645 10.6131 173.645 9.8412C173.645 9.06933 174.217 8.57933 174.901 8.57933C175.586 8.57933 176.163 9.06933 176.163 9.8412C176.163 10.6131 175.583 11.1214 174.898 11.1214L174.901 11.119ZM171.232 9.8412L171.228 9.84402C171.228 9.07215 171.815 8.58215 172.504 8.57933C172.677 8.57598 172.849 8.60904 173.009 8.67637C173.169 8.7437 173.313 8.8438 173.431 8.9702L173.076 9.27275C173 9.19867 172.911 9.14028 172.813 9.10093C172.715 9.06158 172.61 9.04206 172.504 9.04349C172.072 9.04349 171.696 9.35121 171.696 9.8412C171.696 10.1724 171.893 10.4707 172.195 10.5976C172.497 10.7244 172.845 10.6539 173.076 10.42L173.436 10.7225C173.317 10.8502 173.173 10.9515 173.012 11.0198C172.852 11.0881 172.679 11.1219 172.504 11.119C171.82 11.119 171.232 10.6131 171.232 9.8412ZM169.732 10.6018C169.732 10.5592 169.74 10.517 169.756 10.4775C169.772 10.4379 169.795 10.4019 169.825 10.3715C169.854 10.341 169.89 10.3167 169.929 10.3C169.968 10.2832 170.01 10.2744 170.053 10.2739C170.095 10.2744 170.137 10.2832 170.177 10.3C170.216 10.3167 170.251 10.341 170.281 10.3715C170.311 10.4019 170.334 10.4379 170.35 10.4775C170.366 10.517 170.374 10.5592 170.373 10.6018C170.369 10.6842 170.334 10.762 170.274 10.8192C170.214 10.8763 170.135 10.9087 170.053 10.9095C169.97 10.9087 169.891 10.8763 169.832 10.8192C169.772 10.762 169.737 10.6842 169.732 10.6018Z" fill="white"/>
<path fill-rule="evenodd" clip-rule="evenodd" d="M171.014 5.53878H169.346L168.177 8.55345L167.014 5.53878H165.345L167.374 10.3025L166.112 13.452H167.768L171.014 5.53878ZM160.869 8.18842C160.869 8.94949 161.534 9.45029 162.188 9.45029C162.83 9.45029 163.461 8.98425 163.461 8.18795C163.461 7.39165 162.83 6.92515 162.188 6.92515C161.534 6.92515 160.869 7.42689 160.869 8.18842ZM163.461 10.8484V10.2457C163.122 10.7577 162.333 10.9513 161.928 10.9513C160.587 10.9513 159.246 9.89424 159.246 8.18795C159.246 6.48213 160.587 5.42509 161.928 5.42509C162.266 5.42509 163.055 5.53784 163.461 6.12978V5.54066H165.016V10.8493L163.461 10.8484ZM158.804 10.8484H157.249V10.1888C156.989 10.6774 156.359 10.9621 155.705 10.9621C154.352 10.9621 153.158 9.88203 153.158 8.20956C153.158 6.50562 154.352 5.42415 155.705 5.42415C156.358 5.42415 156.99 5.69663 157.249 6.18569V2.64673H158.804V10.8484ZM157.215 8.17621C157.215 7.38038 156.64 6.91387 155.998 6.91387C155.333 6.91387 154.78 7.4142 154.78 8.17621C154.78 8.96264 155.333 9.46062 155.998 9.46062C156.652 9.46156 157.215 8.93821 157.215 8.17621ZM149.313 8.03903C149.313 7.23192 149.73 6.95897 150.282 6.95897C150.812 6.95897 151.195 7.31132 151.195 8.01601V10.8475H152.761V7.67541C152.761 6.16361 152.017 5.42415 150.834 5.42415C150.214 5.42415 149.594 5.7765 149.313 6.31112V5.53878H147.747V10.8475H149.313V8.03903ZM144.567 10.9386C143.079 10.9386 141.839 9.84727 141.839 8.17574C141.839 6.50327 143.078 5.42274 144.567 5.42274C146.056 5.42274 147.306 6.50327 147.306 8.17574C147.306 9.84821 146.054 10.9386 144.567 10.9386ZM144.567 9.39297C145.22 9.39297 145.761 8.91472 145.761 8.17621C145.761 7.45977 145.22 6.97072 144.567 6.97072C144.409 6.96825 144.253 6.99785 144.108 7.0577C143.962 7.11754 143.83 7.20639 143.72 7.31883C143.61 7.43187 143.523 7.56602 143.465 7.71331C143.407 7.8606 143.379 8.01802 143.383 8.17621C143.384 8.91566 143.925 9.39297 144.567 9.39297ZM139.031 6.95944C139.493 6.95944 139.899 7.32353 139.899 8.01648V10.8484H141.454V7.83326C141.454 6.23032 140.674 5.42321 139.425 5.42321C139.054 5.42321 138.355 5.53596 137.847 6.36656C137.554 5.75254 136.991 5.43402 136.159 5.43402C135.87 5.43255 135.586 5.51435 135.342 5.66964C135.099 5.82493 134.905 6.04715 134.784 6.30971V5.53925H133.217V10.8479H134.783V8.03903C134.783 7.23192 135.222 6.95897 135.695 6.95897C136.146 6.95897 136.551 7.31132 136.563 7.98218V10.8479H138.129V8.03903C138.129 7.26716 138.535 6.95944 139.031 6.95944Z" fill="white"/>
</g>
<path d="M217.494 11.5035L218.085 10.1258C218.724 10.6041 219.573 10.8529 220.413 10.8529C221.033 10.8529 221.424 10.6137 221.424 10.2501C221.414 9.23599 217.713 10.0301 217.684 7.48513C217.675 6.19351 218.82 5.19849 220.441 5.19849C221.405 5.19849 222.368 5.43768 223.055 5.98303L222.502 7.38945C221.872 6.98762 221.09 6.70059 220.346 6.70059C219.84 6.70059 219.507 6.93978 219.507 7.24594C219.516 8.24096 223.246 7.69562 223.284 10.1258C223.284 11.4461 222.168 12.3741 220.565 12.3741C219.392 12.3741 218.314 12.0967 217.494 11.5035Z" fill="white"/>
<path d="M240.189 9.62826C239.893 10.1449 239.34 10.4989 238.7 10.4989C237.756 10.4989 236.993 9.7335 236.993 8.78631C236.993 7.83913 237.756 7.07372 238.7 7.07372C239.34 7.07372 239.893 7.42772 240.189 7.94437L241.82 7.03545C241.209 5.94475 240.036 5.19849 238.7 5.19849C236.726 5.19849 235.123 6.80583 235.123 8.78631C235.123 10.7668 236.726 12.3741 238.7 12.3741C240.046 12.3741 241.209 11.6374 241.82 10.5372L240.189 9.62826Z" fill="white"/>
<path d="M226.146 2.2229H224.104V12.2401H226.146V2.2229Z" fill="white"/>
<path d="M242.621 2.2229V12.2401H244.663V9.23591L247.086 12.2401H249.7L246.618 8.67142L249.471 5.34192H246.971L244.663 8.10694V2.2229H242.621Z" fill="white"/>
<path d="M232.213 9.64739C231.918 10.1353 231.307 10.4989 230.62 10.4989C229.676 10.4989 228.913 9.7335 228.913 8.78631C228.913 7.83913 229.676 7.07372 230.62 7.07372C231.307 7.07372 231.918 7.45643 232.213 7.95394V9.64739ZM232.213 5.342V6.15524C231.879 5.59076 231.05 5.19849 230.181 5.19849C228.388 5.19849 226.976 6.7867 226.976 8.77675C226.976 10.7668 228.388 12.3741 230.181 12.3741C231.05 12.3741 231.879 11.9819 232.213 11.4174V12.2306H234.255V5.342H232.213Z" fill="white"/>
<path d="M204.873 9.63767C204.873 10.3361 204.31 10.9006 203.614 10.9006C202.917 10.9006 202.354 10.3361 202.354 9.63767C202.354 8.93924 202.917 8.37476 203.614 8.37476H204.873V9.63767Z" fill="white"/>
<path d="M205.502 9.63767C205.502 8.93924 206.065 8.37476 206.762 8.37476C207.458 8.37476 208.021 8.93924 208.021 9.63767V12.795C208.021 13.4934 207.458 14.0579 206.762 14.0579C206.065 14.0579 205.502 13.4934 205.502 12.795V9.63767Z" fill="white"/>
<path d="M206.762 4.56685C206.065 4.56685 205.502 4.00236 205.502 3.30393C205.502 2.6055 206.065 2.04102 206.762 2.04102C207.458 2.04102 208.021 2.6055 208.021 3.30393V4.56685H206.762Z" fill="white"/>
<path d="M206.762 5.20776C207.458 5.20776 208.021 5.77225 208.021 6.47068C208.021 7.16911 207.458 7.73359 206.762 7.73359H203.604C202.908 7.73359 202.345 7.16911 202.345 6.47068C202.345 5.77225 202.908 5.20776 203.604 5.20776H206.762Z" fill="white"/>
<path d="M211.808 6.47068C211.808 5.77225 212.371 5.20776 213.067 5.20776C213.764 5.20776 214.327 5.77225 214.327 6.47068C214.327 7.16911 213.764 7.73359 213.067 7.73359H211.808V6.47068Z" fill="white"/>
<path d="M211.179 6.47079C211.179 7.16922 210.616 7.7337 209.919 7.7337C209.223 7.7337 208.66 7.16922 208.66 6.47079V3.30393C208.66 2.6055 209.223 2.04102 209.919 2.04102C210.616 2.04102 211.179 2.6055 211.179 3.30393V6.47079Z" fill="white"/>
<path d="M209.919 11.532C210.616 11.532 211.179 12.0965 211.179 12.7949C211.179 13.4933 210.616 14.0578 209.919 14.0578C209.223 14.0578 208.66 13.4933 208.66 12.7949V11.532H209.919Z" fill="white"/>
<path d="M209.919 10.9006C209.223 10.9006 208.66 10.3361 208.66 9.63767C208.66 8.93924 209.223 8.37476 209.919 8.37476H213.077C213.773 8.37476 214.336 8.93924 214.336 9.63767C214.336 10.3361 213.773 10.9006 213.077 10.9006H209.919Z" fill="white"/>
<g clip-path="url(#clip2_1476_942)">
<path d="M278.521 4.40559L275.078 6.5995L278.521 8.79342L275.078 10.9873L271.635 8.78156L275.078 6.58765L271.635 4.40559L275.078 2.21167L278.521 4.40559ZM275.06 11.693L278.503 9.49903L281.947 11.693L278.503 13.8869L275.06 11.693ZM278.521 8.78156L281.964 6.58765L278.521 4.40559L281.947 2.21167L285.39 4.40559L281.947 6.5995L285.39 8.79342L281.947 10.9873L278.521 8.78156Z" fill="white"/>
<path d="M288.091 4.40555H290.875C292.65 4.40555 294.116 5.43136 294.116 7.77351V8.26566C294.116 10.6256 292.745 11.687 290.928 11.687H288.091V4.40555ZM289.646 5.72783V10.3588H290.839C291.849 10.3588 292.525 9.7006 292.525 8.23602V7.8506C292.525 6.38601 291.813 5.72783 290.786 5.72783H289.646ZM294.942 5.79899H296.188L296.39 7.1687C296.628 6.23777 297.233 5.73969 298.331 5.73969H298.717V7.31101H298.076C296.812 7.31101 296.503 7.7498 296.503 8.99499V11.7048H294.965V5.79899H294.942ZM299.026 8.87047V8.70445C299.026 6.72992 300.29 5.65075 302.012 5.65075C303.769 5.65075 304.998 6.72992 304.998 8.70445V8.87047C304.998 10.8094 303.805 11.853 302.012 11.853C300.106 11.8352 299.026 10.8154 299.026 8.87047ZM303.425 8.85268V8.70445C303.425 7.60749 302.873 6.94931 301.994 6.94931C301.133 6.94931 300.563 7.55412 300.563 8.70445V8.85268C300.563 9.91407 301.116 10.5189 301.994 10.5189C302.873 10.5011 303.425 9.91407 303.425 8.85268ZM305.805 5.79899H307.088L307.236 6.91374C307.545 6.16662 308.204 5.65075 309.177 5.65075C310.679 5.65075 311.671 6.72992 311.671 8.72816V8.89419C311.671 10.8331 310.573 11.8589 309.177 11.8589C308.245 11.8589 307.604 11.4379 307.29 10.762V13.7445H305.788L305.805 5.79899ZM310.109 8.85268V8.72224C310.109 7.54819 309.504 6.9671 308.697 6.9671C307.836 6.9671 307.266 7.62528 307.266 8.72224V8.8349C307.266 9.87849 307.818 10.5367 308.679 10.5367C309.563 10.5189 310.109 9.95557 310.109 8.85268ZM313.944 10.6137L313.814 11.6929H312.496V3.82446H313.998V6.84258C314.33 6.07175 314.989 5.65075 315.921 5.65075C317.334 5.66854 318.379 6.64098 318.379 8.59772V8.78153C318.379 10.7383 317.388 11.8589 315.886 11.8589C314.894 11.8352 314.253 11.3787 313.944 10.6137ZM316.8 8.78153V8.63329C316.8 7.55412 316.212 6.94931 315.387 6.94931C314.544 6.94931 313.956 7.62528 313.956 8.65108V8.78153C313.956 9.87849 314.526 10.5189 315.369 10.5189C316.272 10.5189 316.8 9.95557 316.8 8.78153ZM319.038 8.87047V8.70445C319.038 6.72992 320.302 5.65075 322.024 5.65075C323.781 5.65075 325.01 6.72992 325.01 8.70445V8.87047C325.01 10.8094 323.799 11.853 322.024 11.853C320.118 11.8352 319.038 10.8154 319.038 8.87047ZM323.449 8.85268V8.70445C323.449 7.60749 322.897 6.94931 322.018 6.94931C321.157 6.94931 320.587 7.55412 320.587 8.70445V8.85268C320.587 9.91407 321.14 10.5189 322.018 10.5189C322.903 10.5011 323.449 9.91407 323.449 8.85268ZM327.023 8.63329L324.951 5.79899H326.726L327.919 7.57191L329.13 5.79899H330.887L328.786 8.6155L331 11.6929H329.261L327.907 9.73618L326.589 11.6929H324.773L327.023 8.63329Z" fill="white"/>
</g>
<defs>
<clipPath id="clip0_1476_942">
<rect width="38.5875" height="8.74651" fill="white" transform="translate(0 3.67603)"/>
</clipPath>
<clipPath id="clip1_1476_942">
<rect width="59.3654" height="10.8053" fill="white" transform="translate(121.044 2.64673)"/>
</clipPath>
<clipPath id="clip2_1476_942">
<rect width="59.3654" height="11.6752" fill="white" transform="translate(271.635 2.21167)"/>
</clipPath>
</defs>
</svg>
