<svg width="1111" height="55" viewBox="0 0 1111 55" fill="none" xmlns="http://www.w3.org/2000/svg">
<g clip-path="url(#clip0_1476_201)">
<path d="M27.1599 41.2446H4.13057C2.60283 41.2446 1.18825 40.4542 0.452665 39.0992C-0.339499 37.5184 -0.0565832 35.6553 1.18825 34.4697L17.2013 18.4924H5.7149C2.54624 18.4924 0 15.8954 0 12.7903H21.2187C22.7464 12.7903 24.161 13.5807 24.8966 14.9356C25.6888 16.5164 25.4058 18.3795 24.161 19.5651L8.14797 35.5424H21.445C24.6137 35.5424 27.1599 38.1394 27.1599 41.2446ZM118.372 12.3386C115.09 12.3386 112.091 13.75 110.054 16.0648C108.017 13.8065 105.018 12.3386 101.737 12.3386C95.6255 12.3386 90.5896 17.5327 90.5896 23.63V41.2446C93.7583 41.2446 96.3045 38.704 96.3045 35.5424V23.5736C96.3045 20.6378 98.5679 18.1537 101.51 18.0408C104.622 17.9279 107.169 20.412 107.169 23.4606V35.5424C107.169 38.704 109.715 41.2446 112.883 41.2446V23.5736C112.883 20.6378 115.147 18.1537 118.089 18.0408C121.201 17.9279 123.747 20.412 123.747 23.4606V35.5424C123.747 38.704 126.294 41.2446 129.462 41.2446V23.63C129.519 17.5327 124.483 12.3386 118.372 12.3386ZM56.0173 27.0174C56.0173 35.0908 49.3971 41.6962 41.3057 41.6962C33.1577 41.6962 26.5941 35.0908 26.5941 27.0174C26.5941 18.9441 33.2143 12.3386 41.3057 12.3386C49.3971 12.3386 56.0173 18.9441 56.0173 27.0174ZM50.3024 27.0174C50.3024 22.0492 46.285 18.0408 41.3057 18.0408C36.3264 18.0408 32.309 22.0492 32.309 27.0174C32.309 31.9856 36.3264 35.9941 41.3057 35.9941C46.285 35.9941 50.3024 31.9856 50.3024 27.0174ZM87.7605 27.0174C87.7605 35.0908 81.1403 41.6962 73.0489 41.6962C64.9009 41.6962 58.3372 35.0908 58.3372 27.0174C58.3372 18.9441 64.9575 12.3386 73.0489 12.3386C81.1403 12.3386 87.7605 18.9441 87.7605 27.0174ZM82.0456 27.0174C82.0456 22.0492 78.0282 18.0408 73.0489 18.0408C68.0695 18.0408 64.0521 22.0492 64.0521 27.0174C64.0521 31.9856 68.0695 35.9941 73.0489 35.9941C78.0282 35.9941 82.0456 31.9856 82.0456 27.0174Z" fill="white"/>
</g>
<path fill-rule="evenodd" clip-rule="evenodd" d="M332.662 27.9191C332.662 18.6848 328.201 11.3984 319.674 11.3984C311.111 11.3984 305.931 18.6848 305.931 27.8469C305.931 38.7044 312.047 44.1872 320.825 44.1872C325.107 44.1872 328.345 43.2133 330.791 41.8426V34.6283C328.345 35.8547 325.538 36.6122 321.977 36.6122C318.487 36.6122 315.393 35.3858 314.997 31.1294H332.59C332.59 30.6605 332.662 28.7848 332.662 27.9191ZM314.889 24.4923C314.889 20.4162 317.371 18.7209 319.638 18.7209C321.833 18.7209 324.171 20.4162 324.171 24.4923H314.889Z" fill="white"/>
<path fill-rule="evenodd" clip-rule="evenodd" d="M292.043 11.3984C288.517 11.3984 286.251 13.0577 284.992 14.212L284.524 11.9756H276.609V54.0346L285.603 52.1229L285.639 41.9147C286.934 42.8526 288.841 44.1872 292.007 44.1872C298.447 44.1872 304.312 38.9929 304.312 27.5584C304.276 17.0977 298.339 11.3984 292.043 11.3984ZM289.885 36.2515C287.762 36.2515 286.503 35.494 285.639 34.5562L285.603 21.1737C286.539 20.1277 287.834 19.4063 289.885 19.4063C293.159 19.4063 295.425 23.0855 295.425 27.8109C295.425 32.6444 293.194 36.2515 289.885 36.2515Z" fill="white"/>
<path fill-rule="evenodd" clip-rule="evenodd" d="M264.233 9.27031L273.263 7.32246V0L264.233 1.91178V9.27031Z" fill="white"/>
<path d="M273.263 12.0117H264.233V43.5741H273.263V12.0117Z" fill="white"/>
<path fill-rule="evenodd" clip-rule="evenodd" d="M254.555 14.681L253.979 12.0118H246.208V43.5741H255.202V22.1839C257.325 19.4064 260.923 19.9114 262.038 20.3082V12.0118C260.887 11.5789 256.677 10.7853 254.555 14.681Z" fill="white"/>
<path fill-rule="evenodd" clip-rule="evenodd" d="M236.566 4.18433L227.787 6.06003L227.751 34.9531C227.751 40.2916 231.745 44.2234 237.07 44.2234C240.02 44.2234 242.178 43.6823 243.366 43.0331V35.7106C242.214 36.1795 236.53 37.8388 236.53 32.5003V19.695H243.366V12.0118H236.53L236.566 4.18433Z" fill="white"/>
<path fill-rule="evenodd" clip-rule="evenodd" d="M212.245 21.1737C212.245 19.767 213.397 19.2259 215.303 19.2259C218.038 19.2259 221.492 20.0555 224.226 21.5345V13.0577C221.24 11.8674 218.29 11.3984 215.303 11.3984C208 11.3984 203.143 15.222 203.143 21.6066C203.143 31.5623 216.815 29.9751 216.815 34.2676C216.815 35.9269 215.375 36.468 213.361 36.468C210.375 36.468 206.561 35.2415 203.539 33.5823V42.1672C206.885 43.6101 210.267 44.2233 213.361 44.2233C220.844 44.2233 225.989 40.5079 225.989 34.0512C225.953 23.3019 212.245 25.2137 212.245 21.1737Z" fill="white"/>
<g clip-path="url(#clip1_1476_201)">
<path d="M410.416 37.5498C409.682 37.5514 408.961 37.3581 408.326 36.9896C407.691 36.6212 407.165 36.0907 406.802 35.4526C406.445 34.8189 406.267 34.0999 406.287 33.3727C406.307 32.6455 406.524 31.9374 406.916 31.3243L414.358 19.6366C414.739 19.0085 415.28 18.4927 415.926 18.142C416.571 17.7912 417.298 17.6181 418.032 17.6403C418.766 17.6579 419.482 17.8701 420.107 18.2552C420.732 18.6404 421.243 19.1846 421.588 19.8322C422.282 21.1441 422.195 22.7225 421.364 23.9541L413.926 35.6418C413.549 36.2296 413.03 36.7126 412.416 37.0461C411.803 37.3797 411.115 37.5529 410.416 37.5498Z" fill="white"/>
<path d="M423.182 37.5495C421.681 37.5495 420.3 36.7469 419.574 35.457C419.218 34.8251 419.04 34.108 419.06 33.3827C419.08 32.6574 419.297 31.9512 419.688 31.3398L427.116 19.6789C427.492 19.042 428.031 18.517 428.677 18.1585C429.324 17.8 430.055 17.621 430.794 17.6401C432.307 17.6732 433.679 18.5199 434.373 19.8445C435.062 21.1691 434.961 22.757 434.105 23.9853L426.678 35.6462C426.302 36.2315 425.785 36.7127 425.174 37.0453C424.563 37.3779 423.878 37.5513 423.182 37.5495Z" fill="white"/>
<path d="M435.663 37.6472C437.779 37.6472 439.495 35.9677 439.495 33.8959C439.495 31.8241 437.779 30.1445 435.663 30.1445C433.547 30.1445 431.832 31.8241 431.832 33.8959C431.832 35.9677 433.547 37.6472 435.663 37.6472Z" fill="white"/>
<path d="M602.124 30.362C603.281 30.362 603.973 31.1851 603.973 32.5334V37.1536H605.545V32.4277C605.545 30.1349 604.465 28.8056 602.434 28.8056C601.64 28.8056 600.378 29.0233 599.626 30.485C599.451 30.0539 599.163 29.6781 598.792 29.3977C598.42 29.1172 597.98 28.9426 597.518 28.8924C597.227 28.8391 596.93 28.8216 596.635 28.8403C595.988 28.8924 594.837 29.2945 594.407 30.2059V28.9807H592.833V37.1536H594.407V32.7431C594.407 31.0274 595.529 30.362 596.654 30.362C597.707 30.362 598.399 31.1678 598.399 32.516V37.1536H599.963V32.7431C599.963 31.3775 600.783 30.3462 602.124 30.362ZM587.057 35.788C587.776 35.8038 588.47 35.5168 588.973 34.9964C589.477 34.476 589.746 33.768 589.719 33.0411C589.719 31.3949 588.508 30.362 587.057 30.362C585.605 30.362 584.395 31.3949 584.395 33.0411C584.367 33.7665 584.635 34.4729 585.136 34.9917C585.638 35.512 586.329 35.8006 587.044 35.788H587.057ZM587.057 37.3207C584.758 37.3207 582.839 35.6224 582.839 33.0316C582.839 30.4409 584.758 28.7962 587.057 28.7962C589.356 28.7962 591.291 30.4409 591.291 33.0316C591.291 35.6224 589.345 37.3286 587.046 37.3286L587.057 37.3207ZM574.742 33.0316L574.726 33.0411C574.726 30.4503 576.696 28.8056 579.01 28.7962C579.592 28.7849 580.169 28.8959 580.705 29.1219C581.241 29.3479 581.724 29.6839 582.122 30.1081L580.929 31.1236C580.676 30.875 580.376 30.679 580.047 30.5469C579.718 30.4148 579.365 30.3493 579.01 30.3541C577.56 30.3541 576.298 31.387 576.298 33.0316C576.298 34.1433 576.959 35.1446 577.973 35.5704C578.987 35.9961 580.154 35.7596 580.929 34.9743L582.139 35.9898C581.74 36.4185 581.255 36.7584 580.716 36.9877C580.177 37.217 579.596 37.3304 579.01 37.3207C576.713 37.3207 574.742 35.6224 574.742 33.0316ZM569.707 35.5846C569.705 35.4417 569.732 35.2999 569.785 35.1672C569.838 35.0346 569.917 34.9137 570.017 34.8115C570.117 34.7093 570.236 34.6278 570.367 34.5716C570.498 34.5154 570.64 34.4856 570.783 34.4839C570.925 34.4856 571.067 34.5154 571.198 34.5716C571.329 34.6278 571.448 34.7093 571.548 34.8115C571.648 34.9137 571.727 35.0346 571.78 35.1672C571.833 35.2999 571.86 35.4417 571.858 35.5846C571.844 35.8613 571.725 36.1222 571.525 36.3142C571.325 36.5061 571.06 36.6146 570.783 36.6174C570.505 36.6146 570.24 36.5061 570.04 36.3142C569.84 36.1222 569.721 35.8613 569.707 35.5846Z" fill="white"/>
<path fill-rule="evenodd" clip-rule="evenodd" d="M574.009 18.5907H568.409L564.484 28.7094L560.58 18.5907H554.981L561.788 34.5801L557.554 45.1514H563.113L574.009 18.5907ZM539.955 27.4842C539.955 30.0387 542.188 31.7197 544.381 31.7197C546.537 31.7197 548.655 30.1554 548.655 27.4826C548.655 24.8099 546.537 23.244 544.381 23.244C542.188 23.244 539.955 24.9281 539.955 27.4842ZM548.655 36.4124V34.3893C547.519 36.1081 544.87 36.7577 543.511 36.7577C539.011 36.7577 534.509 33.2098 534.509 27.4826C534.509 21.757 539.009 18.2091 543.511 18.2091C544.645 18.2091 547.294 18.5876 548.655 20.5744V18.597H553.874V36.4156L548.655 36.4124ZM533.023 36.4124H527.804V34.1985C526.932 35.8384 524.818 36.794 522.623 36.794C518.083 36.794 514.073 33.1688 514.073 27.5552C514.073 21.8359 518.083 18.206 522.623 18.206C524.814 18.206 526.935 19.1205 527.804 20.762V8.88354H533.023V36.4124ZM527.691 27.4432C527.691 24.772 525.762 23.2062 523.607 23.2062C521.374 23.2062 519.519 24.8855 519.519 27.4432C519.519 30.0829 521.374 31.7544 523.605 31.7544C525.802 31.7575 527.691 30.0009 527.691 27.4432ZM501.168 26.9828C501.168 24.2737 502.568 23.3576 504.421 23.3576C506.198 23.3576 507.485 24.5402 507.485 26.9055V36.4093H512.742V25.7623C512.742 20.6879 510.244 18.206 506.272 18.206C504.193 18.206 502.113 19.3886 501.167 21.1831V18.5907H495.913V36.4093H501.168V26.9828ZM485.237 36.7152C480.245 36.7152 476.081 33.0521 476.081 27.4416C476.081 21.828 480.24 18.2012 485.237 18.2012C490.234 18.2012 494.43 21.828 494.43 27.4416C494.43 33.0553 490.23 36.7152 485.237 36.7152ZM485.237 31.5273C487.429 31.5273 489.247 29.922 489.247 27.4432C489.247 25.0385 487.431 23.397 485.237 23.397C484.709 23.3887 484.185 23.4881 483.697 23.6889C483.208 23.8898 482.766 24.188 482.396 24.5654C482.024 24.9449 481.733 25.3951 481.538 25.8895C481.344 26.3839 481.251 26.9122 481.265 27.4432C481.267 29.9252 483.082 31.5273 485.237 31.5273ZM466.656 23.3591C468.206 23.3591 469.568 24.5812 469.568 26.9071V36.4124H474.788V26.2921C474.788 20.9119 472.172 18.2028 467.979 18.2028C466.733 18.2028 464.387 18.5812 462.684 21.3691C461.7 19.3082 459.809 18.2391 457.015 18.2391C456.045 18.2341 455.094 18.5087 454.276 19.0299C453.458 19.5512 452.807 20.297 452.401 21.1783V18.5923H447.141V36.4108H452.397V26.9828C452.397 24.2737 453.873 23.3576 455.46 23.3576C456.974 23.3576 458.333 24.5402 458.373 26.792V36.4108H463.63V26.9828C463.63 24.392 464.992 23.3591 466.656 23.3591Z" fill="white"/>
</g>
<path d="M730.017 38.6102L732.002 33.9859C734.148 35.5916 736.997 36.4265 739.815 36.4265C741.896 36.4265 743.209 35.6237 743.209 34.4034C743.177 30.9994 730.754 33.6648 730.657 25.1226C730.625 20.7873 734.468 17.4475 739.911 17.4475C743.145 17.4475 746.379 18.2503 748.685 20.0808L746.828 24.8015C744.714 23.4527 742.089 22.4893 739.591 22.4893C737.894 22.4893 736.773 23.2922 736.773 24.3198C736.805 27.6596 749.325 25.8291 749.453 33.9859C749.453 38.4176 745.707 41.5326 740.327 41.5326C736.389 41.5326 732.771 40.6013 730.017 38.6102Z" fill="white"/>
<path d="M806.193 32.316C805.2 34.0501 803.343 35.2383 801.197 35.2383C798.027 35.2383 795.466 32.6693 795.466 29.49C795.466 26.3108 798.027 23.7417 801.197 23.7417C803.343 23.7417 805.2 24.9299 806.193 26.6641L811.668 23.6133C809.619 19.9524 805.68 17.4475 801.197 17.4475C794.569 17.4475 789.19 22.8426 789.19 29.49C789.19 36.1375 794.569 41.5326 801.197 41.5326C805.712 41.5326 809.619 39.0598 811.668 35.3668L806.193 32.316Z" fill="white"/>
<path d="M759.059 7.46021H752.207V41.0829H759.059V7.46021Z" fill="white"/>
<path d="M814.357 7.46021V41.0829H821.21V30.9993L829.343 41.0829H838.116L827.774 29.1046L837.348 17.9292H828.958L821.21 27.21V7.46021H814.357Z" fill="white"/>
<path d="M779.424 32.3802C778.431 34.018 776.382 35.2383 774.076 35.2383C770.906 35.2383 768.345 32.6693 768.345 29.49C768.345 26.3108 770.906 23.7417 774.076 23.7417C776.382 23.7417 778.431 25.0263 779.424 26.6962V32.3802ZM779.424 17.9292V20.6589C778.303 18.7642 775.517 17.4475 772.603 17.4475C766.584 17.4475 761.845 22.7783 761.845 29.4579C761.845 36.1375 766.584 41.5326 772.603 41.5326C775.517 41.5326 778.303 40.2159 779.424 38.3212V41.0509H786.276V17.9292H779.424Z" fill="white"/>
<path d="M687.655 32.3481C687.655 34.6924 685.766 36.5871 683.428 36.5871C681.091 36.5871 679.202 34.6924 679.202 32.3481C679.202 30.0038 681.091 28.1091 683.428 28.1091H687.655V32.3481Z" fill="white"/>
<path d="M689.768 32.3481C689.768 30.0038 691.657 28.1091 693.995 28.1091C696.332 28.1091 698.221 30.0038 698.221 32.3481V42.9455C698.221 45.2898 696.332 47.1845 693.995 47.1845C691.657 47.1845 689.768 45.2898 689.768 42.9455V32.3481Z" fill="white"/>
<path d="M693.995 15.328C691.657 15.328 689.768 13.4333 689.768 11.0891C689.768 8.74479 691.657 6.8501 693.995 6.8501C696.332 6.8501 698.221 8.74479 698.221 11.0891V15.328H693.995Z" fill="white"/>
<path d="M693.995 17.4797C696.332 17.4797 698.221 19.3744 698.221 21.7187C698.221 24.063 696.332 25.9577 693.995 25.9577H683.396C681.059 25.9577 679.169 24.063 679.169 21.7187C679.169 19.3744 681.059 17.4797 683.396 17.4797H693.995Z" fill="white"/>
<path d="M710.933 21.7187C710.933 19.3744 712.822 17.4797 715.16 17.4797C717.497 17.4797 719.386 19.3744 719.386 21.7187C719.386 24.063 717.497 25.9577 715.16 25.9577H710.933V21.7187Z" fill="white"/>
<path d="M708.82 21.7186C708.82 24.0629 706.931 25.9576 704.593 25.9576C702.256 25.9576 700.367 24.0629 700.367 21.7186V11.0891C700.367 8.74479 702.256 6.8501 704.593 6.8501C706.931 6.8501 708.82 8.74479 708.82 11.0891V21.7186Z" fill="white"/>
<path d="M704.593 38.7065C706.931 38.7065 708.82 40.6012 708.82 42.9455C708.82 45.2898 706.931 47.1845 704.593 47.1845C702.256 47.1845 700.367 45.2898 700.367 42.9455V38.7065H704.593Z" fill="white"/>
<path d="M704.593 36.5871C702.256 36.5871 700.367 34.6924 700.367 32.3481C700.367 30.0038 702.256 28.1091 704.593 28.1091H715.192C717.529 28.1091 719.419 30.0038 719.419 32.3481C719.419 34.6924 717.529 36.5871 715.192 36.5871H704.593Z" fill="white"/>
<g clip-path="url(#clip2_1476_201)">
<path d="M934.854 14.7875L923.297 22.1513L934.854 29.5152L923.297 36.8791L911.74 29.4754L923.297 22.1115L911.74 14.7875L923.297 7.42358L934.854 14.7875ZM923.238 39.2475L934.795 31.8836L946.352 39.2475L934.795 46.6113L923.238 39.2475ZM934.854 29.4754L946.411 22.1115L934.854 14.7875L946.352 7.42358L957.909 14.7875L946.352 22.1513L957.909 29.5152L946.352 36.8791L934.854 29.4754Z" fill="white"/>
<path d="M966.975 14.7873H976.32C982.278 14.7873 987.2 18.2305 987.2 26.0919V27.7438C987.2 35.6649 982.597 39.2274 976.5 39.2274H966.975V14.7873ZM972.196 19.2256V34.7693H976.201C979.588 34.7693 981.86 32.5602 981.86 27.6443V26.3506C981.86 21.4347 979.469 19.2256 976.021 19.2256H972.196ZM989.97 19.4644H994.154L994.832 24.0618C995.629 20.9372 997.661 19.2654 1001.35 19.2654H1002.64V24.5395H1000.49C996.246 24.5395 995.21 26.0123 995.21 30.1918V39.2872H990.049V19.4644H989.97ZM1003.68 29.7738V29.2166C1003.68 22.5891 1007.92 18.9668 1013.7 18.9668C1019.6 18.9668 1023.72 22.5891 1023.72 29.2166V29.7738C1023.72 36.2819 1019.72 39.7847 1013.7 39.7847C1007.31 39.725 1003.68 36.3018 1003.68 29.7738ZM1018.44 29.7141V29.2166C1018.44 25.5346 1016.59 23.3255 1013.64 23.3255C1010.75 23.3255 1008.84 25.3555 1008.84 29.2166V29.7141C1008.84 33.2766 1010.69 35.3067 1013.64 35.3067C1016.59 35.247 1018.44 33.2766 1018.44 29.7141ZM1026.43 19.4644H1030.74L1031.24 23.206C1032.27 20.6983 1034.48 18.9668 1037.75 18.9668C1042.79 18.9668 1046.12 22.5891 1046.12 29.2962V29.8534C1046.12 36.3615 1042.43 39.8046 1037.75 39.8046C1034.62 39.8046 1032.47 38.3915 1031.42 36.1227V46.1336H1026.37L1026.43 19.4644ZM1040.88 29.7141V29.2763C1040.88 25.3356 1038.85 23.3852 1036.14 23.3852C1033.25 23.3852 1031.34 25.5943 1031.34 29.2763V29.6544C1031.34 33.1572 1033.19 35.3664 1036.08 35.3664C1039.05 35.3067 1040.88 33.416 1040.88 29.7141ZM1053.75 35.6251L1053.31 39.2473H1048.89V12.8369H1053.93V22.9672C1055.05 20.3799 1057.26 18.9668 1060.39 18.9668C1065.13 19.0265 1068.64 22.2905 1068.64 28.8583V29.4753C1068.64 36.0431 1065.31 39.8046 1060.27 39.8046C1056.94 39.725 1054.79 38.1925 1053.75 35.6251ZM1063.34 29.4753V28.9777C1063.34 25.3555 1061.36 23.3255 1058.59 23.3255C1055.77 23.3255 1053.79 25.5943 1053.79 29.0374V29.4753C1053.79 33.1572 1055.71 35.3067 1058.53 35.3067C1061.56 35.3067 1063.34 33.416 1063.34 29.4753ZM1070.85 29.7738V29.2166C1070.85 22.5891 1075.09 18.9668 1080.87 18.9668C1086.77 18.9668 1090.89 22.5891 1090.89 29.2166V29.7738C1090.89 36.2819 1086.83 39.7847 1080.87 39.7847C1074.48 39.725 1070.85 36.3018 1070.85 29.7738ZM1085.65 29.7141V29.2166C1085.65 25.5346 1083.8 23.3255 1080.85 23.3255C1077.96 23.3255 1076.05 25.3555 1076.05 29.2166V29.7141C1076.05 33.2766 1077.9 35.3067 1080.85 35.3067C1083.82 35.247 1085.65 33.2766 1085.65 29.7141ZM1097.65 28.9777L1090.7 19.4644H1096.65L1100.66 25.4152L1104.72 19.4644H1110.62L1103.57 28.918L1111 39.2473H1105.16L1100.62 32.6796L1096.2 39.2473H1090.1L1097.65 28.9777Z" fill="white"/>
</g>
<defs>
<clipPath id="clip0_1476_201">
<rect width="129.519" height="29.3576" fill="white" transform="translate(0 12.3386)"/>
</clipPath>
<clipPath id="clip1_1476_201">
<rect width="199.26" height="36.2678" fill="white" transform="translate(406.286 8.88354)"/>
</clipPath>
<clipPath id="clip2_1476_201">
<rect width="199.26" height="39.1877" fill="white" transform="translate(911.74 7.42358)"/>
</clipPath>
</defs>
</svg>
