<svg width="53" height="21" viewBox="0 0 53 21" fill="none" xmlns="http://www.w3.org/2000/svg">
<path d="M11.4969 2.15997C11.548 2.0961 11.5991 2.03222 11.6502 1.96835C11.7524 1.85338 11.861 1.7448 11.976 1.64261C12.1165 1.52764 12.2953 1.41267 12.5125 1.2977C12.7424 1.18273 13.0043 1.13163 13.2981 1.14441C13.4003 1.14441 13.4961 1.15718 13.5855 1.18273C13.6622 1.20828 13.7324 1.2466 13.7963 1.2977C13.8602 1.33602 13.9049 1.39989 13.9304 1.48931C14.6203 1.32325 15.3165 1.17634 16.019 1.0486C16.7216 0.908081 17.3987 0.805886 18.0502 0.742014C18.7017 0.678142 19.3148 0.658981 19.8897 0.68453C20.4645 0.697304 20.9691 0.761176 21.4034 0.876145C21.8378 0.991115 22.1827 1.16357 22.4382 1.39351C22.7064 1.62345 22.8533 1.91726 22.8789 2.27494C22.8789 2.38991 22.8725 2.50488 22.8597 2.61985C22.8342 2.72204 22.8022 2.82423 22.7639 2.92643C22.7384 3.02862 22.6873 3.13082 22.6106 3.23302C22.534 3.33521 22.4382 3.39269 22.3232 3.40547C22.221 3.40547 22.0996 3.33521 21.9591 3.19469C21.8442 3.07972 21.5503 2.96475 21.0777 2.84978C20.605 2.72204 19.9663 2.63901 19.1615 2.60068C18.3695 2.56236 17.4242 2.58791 16.3256 2.67733C15.2398 2.76675 14.0199 2.97114 12.6658 3.2905C12.2187 3.92922 11.7588 4.67013 11.2861 5.51324C10.8135 6.34357 10.3792 7.14197 9.98316 7.90843C9.52329 8.80264 9.0698 9.70961 8.62269 10.6294C7.94565 11.9835 7.40274 13.1459 6.99396 14.1168C6.59796 15.0748 6.31053 15.8988 6.13169 16.5886C5.87621 17.5595 5.72291 18.2876 5.67182 18.773C5.62072 19.2712 5.60794 19.6289 5.63349 19.8461C5.67182 20.0632 5.72291 20.1974 5.78679 20.2485C5.85066 20.3123 5.87621 20.389 5.86343 20.4784C5.83788 20.5806 5.79317 20.6572 5.7293 20.7083C5.6782 20.7594 5.62072 20.7978 5.55685 20.8233C5.4802 20.8489 5.40355 20.8616 5.32691 20.8616C5.09697 20.8489 4.91174 20.7722 4.77122 20.6317C4.63071 20.4912 4.52212 20.3123 4.44548 20.0952C4.38161 19.878 4.3369 19.6353 4.31135 19.367C4.29857 19.0988 4.29857 18.8241 4.31135 18.5431C4.34967 17.8916 4.47103 17.1571 4.67542 16.3395C4.87981 15.3687 5.19916 14.3212 5.63349 13.197C6.0806 12.0601 6.57241 10.936 7.10893 9.82458C7.64545 8.70044 8.20114 7.62739 8.77599 6.60545C9.35083 5.5835 9.86819 4.69568 10.3281 3.94199C9.08896 4.40187 8.05423 4.85536 7.2239 5.30246C6.40634 5.73679 5.74207 6.16473 5.2311 6.58628C4.7329 6.99506 4.36244 7.39107 4.11973 7.7743C3.88979 8.14476 3.74289 8.50244 3.67902 8.84735C3.61514 9.17948 3.60876 9.49245 3.65985 9.78626C3.72373 10.0673 3.80037 10.3228 3.88979 10.5527C3.97921 10.7699 4.05586 10.9551 4.11973 11.1084C4.1836 11.2617 4.18999 11.3767 4.13889 11.4533C4.0367 11.5938 3.88979 11.6513 3.69818 11.6258C3.51934 11.6002 3.35966 11.53 3.21914 11.415C3.11694 11.3383 3.03391 11.2489 2.97004 11.1467C2.90617 11.0445 2.85507 10.9487 2.81675 10.8593C2.76565 10.7571 2.72733 10.6485 2.70178 10.5336C2.51016 9.86929 2.47184 9.24974 2.58681 8.67489C2.70178 8.10005 2.91894 7.56352 3.2383 7.06532C3.57043 6.55435 3.9856 6.08808 4.4838 5.66653C4.982 5.24498 5.51214 4.86175 6.07421 4.51684C6.64905 4.17193 7.23667 3.86535 7.83707 3.59708C8.43746 3.32882 9.00592 3.0925 9.54245 2.88811C9.55522 2.87533 9.56161 2.86894 9.56161 2.86894C9.57438 2.86894 9.58716 2.86256 9.59993 2.84978C9.88097 2.73481 10.1812 2.61984 10.5005 2.50488C10.8199 2.38991 11.152 2.27494 11.4969 2.15997ZM7.70294 4.2869C7.72849 4.27412 7.74765 4.26774 7.76042 4.26774C7.78597 4.25496 7.81152 4.24219 7.83707 4.22941C7.87539 4.20387 7.9201 4.17832 7.9712 4.15277C8.0734 4.11445 8.16282 4.07612 8.23946 4.0378C8.32888 3.9867 8.41192 3.94199 8.48856 3.90367C9.15283 3.59708 9.67019 3.36715 10.0406 3.21385C10.1428 3.17553 10.2259 3.14359 10.2897 3.11804C10.3536 3.0925 10.4111 3.06695 10.4622 3.0414C10.4877 3.02862 10.5069 3.02224 10.5197 3.02224C10.5452 3.02224 10.5644 3.01585 10.5772 3.00308C10.5899 3.00308 10.6027 2.99669 10.6155 2.98391C10.4877 3.00946 10.3856 3.03501 10.3089 3.06056C10.2834 3.07334 10.2578 3.07972 10.2323 3.07972C10.2067 3.07972 10.1812 3.08611 10.1556 3.09888C10.1301 3.11166 10.1045 3.11804 10.079 3.11804C10.0279 3.14359 10.0023 3.15637 10.0023 3.15637C9.90013 3.18192 9.79155 3.21385 9.67658 3.25218C9.57438 3.27772 9.47219 3.30966 9.36999 3.34798C9.15283 3.42463 8.93566 3.50766 8.7185 3.59708C8.50134 3.67373 8.28417 3.75676 8.06701 3.84618L7.91372 3.92283C7.88817 3.9356 7.86262 3.94838 7.83707 3.96115C7.81152 3.97393 7.78597 3.9867 7.76042 3.99948C7.69655 4.02503 7.63907 4.05057 7.58797 4.07612C7.54965 4.10167 7.49855 4.12722 7.43468 4.15277C7.33248 4.19109 7.23029 4.24219 7.12809 4.30606C7.10254 4.31884 7.077 4.33161 7.05145 4.34438C7.0259 4.35716 7.00035 4.36993 6.9748 4.38271C6.94925 4.40826 6.89815 4.4338 6.82151 4.45935C6.62989 4.57432 6.43828 4.68929 6.24666 4.80426C6.06782 4.91923 5.88898 5.0342 5.71014 5.14917C5.5313 5.27691 5.36523 5.39827 5.21194 5.51324C5.07142 5.62821 4.9309 5.74956 4.79038 5.87731C4.66264 5.99228 4.54128 6.10725 4.42632 6.22221C4.32412 6.32441 4.22831 6.4266 4.13889 6.5288C4.04947 6.63099 3.97283 6.72041 3.90895 6.79706C3.85786 6.87371 3.80676 6.94397 3.75566 7.00784C3.73011 7.04616 3.70456 7.09087 3.67902 7.14197C3.66624 7.15474 3.65985 7.16752 3.65985 7.18029C3.65985 7.19307 3.65347 7.19945 3.64069 7.19945C3.66624 7.16113 3.69179 7.12919 3.71734 7.10365C3.74289 7.06532 3.76844 7.03339 3.79399 7.00784C3.80676 6.99506 3.81315 6.98229 3.81315 6.96952C3.82592 6.95674 3.8387 6.94397 3.85147 6.93119L3.92812 6.85455C3.99199 6.79067 4.04308 6.73319 4.08141 6.68209C4.13251 6.63099 4.18999 6.5799 4.25386 6.5288C4.45825 6.34996 4.67542 6.17112 4.90535 5.99228C5.12252 5.81343 5.33968 5.65376 5.55685 5.51324C5.77401 5.37272 5.99117 5.23859 6.20834 5.11085C6.4255 4.9831 6.62989 4.86813 6.82151 4.76594C7.0259 4.65097 7.2239 4.54239 7.41552 4.44019C7.46661 4.40187 7.51771 4.37632 7.56881 4.36354C7.59436 4.35077 7.61352 4.338 7.62629 4.32522C7.65184 4.31245 7.67739 4.29967 7.70294 4.2869ZM10.5197 4.65097C9.94484 5.57072 9.40832 6.47131 8.91012 7.35275C8.65463 7.78707 8.4183 8.21501 8.20114 8.63657C7.98397 9.05812 7.7732 9.47329 7.56881 9.88207C6.76402 11.5044 6.14447 12.9479 5.71014 14.2126C5.60794 14.5319 5.51214 14.8321 5.42272 15.1132C5.3333 15.3942 5.25665 15.6625 5.19278 15.918C5.16723 16.0457 5.14168 16.1671 5.11613 16.282C5.09058 16.397 5.06503 16.512 5.03948 16.6269C5.02671 16.678 5.01394 16.7291 5.00116 16.7802C5.00116 16.8313 4.99477 16.8824 4.982 16.9335C4.982 16.9591 4.97561 16.9782 4.96284 16.991C4.96284 17.0165 4.96284 17.0421 4.96284 17.0676C4.96284 17.0932 4.95645 17.1187 4.94368 17.1443C4.94368 17.1698 4.94368 17.1954 4.94368 17.2209C4.91813 17.3998 4.89897 17.5531 4.88619 17.6808C4.88619 17.8213 4.88619 17.9363 4.88619 18.0257V18.2365V18.3131C4.89897 18.211 4.90535 18.1151 4.90535 18.0257C4.91813 17.9491 4.9309 17.8597 4.94368 17.7575L5.05865 17.1826C5.0842 17.0804 5.10336 16.9846 5.11613 16.8952C5.14168 16.8058 5.16723 16.71 5.19278 16.6078L5.36523 16.0329C5.60794 15.2792 5.88898 14.5064 6.20834 13.7144C6.37441 13.3311 6.53409 12.9479 6.68738 12.5647C6.85344 12.1815 7.01951 11.8046 7.18558 11.4342C7.36442 11.0637 7.53049 10.6996 7.68378 10.3419C7.84984 9.98426 8.01591 9.63936 8.18198 9.30722C8.50134 8.63018 8.80153 8.01063 9.08257 7.44855C9.36361 6.87371 9.61271 6.38189 9.82987 5.97311C10.0343 5.55156 10.2067 5.22581 10.3472 4.99588L10.5197 4.65097ZM22.5148 2.48571C22.5404 2.33242 22.5212 2.17913 22.4573 2.02584C22.3935 1.85977 22.304 1.71925 22.1891 1.60428C22.1252 1.54041 22.0549 1.48931 21.9783 1.45099C21.9144 1.39989 21.8505 1.35518 21.7867 1.31686C21.6206 1.22744 21.4737 1.17634 21.346 1.16357C21.2054 1.12524 21.0713 1.0997 20.9436 1.08692C20.8158 1.07415 20.7072 1.06776 20.6178 1.06776H20.407H20.3496H20.3304C20.3815 1.08053 20.4326 1.09331 20.4837 1.10608C20.5348 1.10608 20.5859 1.11247 20.637 1.12525L20.9244 1.18273C21.0266 1.20828 21.116 1.23383 21.1927 1.25938C21.2821 1.28492 21.3651 1.31047 21.4418 1.33602C21.5184 1.37435 21.5887 1.41267 21.6525 1.45099C21.7292 1.47654 21.7994 1.50848 21.8633 1.5468C21.9272 1.58512 21.9847 1.62345 22.0358 1.66177C22.0869 1.70009 22.1316 1.7448 22.1699 1.7959C22.2593 1.88532 22.3232 1.97474 22.3615 2.06416C22.3998 2.14081 22.4318 2.21107 22.4573 2.27494C22.4701 2.31326 22.4765 2.3452 22.4765 2.37075C22.4893 2.38352 22.4956 2.40268 22.4956 2.42823C22.4956 2.441 22.502 2.45378 22.5148 2.46655V2.48571ZM14.8119 11.2234C14.9524 11.2362 15.029 11.3639 15.0418 11.6066C15.0674 11.8365 15.0354 12.0856 14.946 12.3539C14.8438 12.6349 14.6969 12.916 14.5053 13.197C14.3264 13.4653 14.0965 13.708 13.8155 13.9252C13.5472 14.1295 13.2278 14.2892 12.8574 14.4042C12.4997 14.5192 12.0973 14.5575 11.6502 14.5192C11.2287 14.4808 10.8582 14.3531 10.5388 14.1359C10.2706 13.9571 10.0279 13.6888 9.81071 13.3311C9.60632 12.9607 9.53606 12.4369 9.59993 11.7599C9.63825 11.3256 9.74045 10.8849 9.90652 10.4378C10.047 10.0545 10.2578 9.64574 10.5388 9.21141C10.8327 8.76431 11.235 8.34276 11.746 7.94675C11.9887 7.76791 12.2378 7.61462 12.4933 7.48688C12.7105 7.38468 12.9468 7.30804 13.2023 7.25694C13.4578 7.19307 13.6941 7.21223 13.9113 7.31442C14.2945 7.48049 14.5244 7.72959 14.6011 8.06172C14.6777 8.39386 14.6586 8.69405 14.5436 8.96232C14.4797 9.10283 14.3903 9.27529 14.2753 9.47968C14.1732 9.67129 14.0071 9.87568 13.7771 10.0928C13.56 10.31 13.2598 10.5272 12.8766 10.7443C12.4933 10.9615 12.0015 11.1531 11.4011 11.3192C11.2478 11.728 11.152 12.0984 11.1137 12.4306C11.0881 12.7244 11.1073 13.0054 11.1712 13.2737C11.2478 13.5291 11.4458 13.708 11.7652 13.8102C12.0718 13.9124 12.3592 13.9124 12.6275 13.8102C12.9085 13.708 13.1576 13.5547 13.3748 13.3503C13.6047 13.1459 13.7963 12.9096 13.9496 12.6413C14.1157 12.3731 14.237 12.124 14.3137 11.894C14.3392 11.8429 14.3648 11.7791 14.3903 11.7024C14.4286 11.6258 14.467 11.5491 14.5053 11.4725C14.5564 11.3958 14.6075 11.3383 14.6586 11.3C14.7097 11.2489 14.7608 11.2234 14.8119 11.2234ZM13.4897 9.38387C13.5664 9.28167 13.6111 9.17948 13.6239 9.07728C13.6494 8.97509 13.6366 8.89206 13.5855 8.82818C13.5472 8.76431 13.4706 8.73238 13.3556 8.73238C13.2406 8.73238 13.1001 8.78347 12.934 8.88567C12.768 8.98786 12.6019 9.12838 12.4358 9.30722C12.2825 9.47329 12.1484 9.63936 12.0334 9.80542C11.9185 9.97149 11.8227 10.1184 11.746 10.2461C11.6822 10.3611 11.663 10.4186 11.6885 10.4186C11.7907 10.4186 11.9249 10.3867 12.0909 10.3228C12.2698 10.2589 12.4422 10.1759 12.6083 10.0737C12.7871 9.95872 12.9532 9.84375 13.1065 9.72878C13.2726 9.60103 13.4003 9.48606 13.4897 9.38387ZM10.0215 11.6449C10.1365 11.2745 10.2897 10.904 10.4814 10.5336C10.6474 10.2142 10.8518 9.87568 11.0945 9.518C11.35 9.16032 11.6566 8.83457 12.0143 8.54076C12.4997 8.14476 12.8957 7.90204 13.2023 7.81262C13.5217 7.7232 13.7644 7.71043 13.9304 7.7743C13.8793 7.7232 13.8219 7.6721 13.758 7.62101C13.6175 7.53159 13.4259 7.50604 13.1831 7.54436C13.0298 7.56991 12.8063 7.6721 12.5125 7.85095C12.2314 8.02979 11.9313 8.28527 11.6119 8.61741C11.2925 8.94954 10.9859 9.37109 10.6921 9.88207C10.4111 10.3803 10.1876 10.9679 10.0215 11.6449ZM20.2514 6.79706C20.5324 7.06532 20.6857 7.35275 20.7112 7.65933C20.7496 7.96591 20.7112 8.26611 20.5963 8.55992C20.5452 8.66212 20.4877 8.75154 20.4238 8.82818C20.3599 8.89206 20.2897 8.94954 20.213 9.00064C20.1364 9.05174 20.047 9.06451 19.9448 9.03896C19.8553 9.01341 19.7787 8.95593 19.7148 8.86651C19.651 8.76431 19.651 8.63018 19.7148 8.46411C19.7404 8.36192 19.7659 8.2725 19.7915 8.19585C19.817 8.11921 19.8362 8.04895 19.849 7.98508C19.8617 7.9212 19.8745 7.85733 19.8873 7.79346C19.5679 8.04895 19.2613 8.38108 18.9675 8.78986C18.6737 9.19864 18.4055 9.64574 18.1627 10.1312C17.92 10.6166 17.7029 11.1084 17.5113 11.6066C17.3196 12.1048 17.1727 12.5647 17.0705 12.9862C16.9683 13.4078 16.9109 13.7655 16.8981 14.0593C16.8853 14.3531 16.9364 14.5319 17.0514 14.5958C17.2047 14.6852 17.4154 14.6533 17.6837 14.5C17.952 14.3595 18.2202 14.1743 18.4885 13.9443C18.7568 13.7144 18.9931 13.4844 19.1975 13.2545C19.4146 13.0118 19.5488 12.8521 19.5999 12.7755C19.6637 12.6988 19.7276 12.6541 19.7915 12.6413C19.8681 12.6286 19.932 12.6541 19.9831 12.718C20.0342 12.7946 20.047 12.884 20.0214 12.9862L19.9831 13.1395C19.9448 13.2673 19.8553 13.4333 19.7148 13.6377C19.5871 13.8421 19.4274 14.0465 19.2358 14.2509C19.0442 14.4553 18.8334 14.6469 18.6035 14.8257C18.3863 15.0174 18.1627 15.1579 17.9328 15.2473C17.5751 15.3878 17.2685 15.4581 17.0131 15.4581C16.7703 15.4581 16.5596 15.4261 16.3807 15.3623C16.1763 15.2984 16.0039 15.1962 15.8634 15.0557C15.6079 14.813 15.4354 14.5064 15.346 14.1359C15.2694 13.7527 15.2502 13.3375 15.2885 12.8904C15.3396 12.4306 15.4354 11.9579 15.5759 11.4725C15.7292 10.9871 15.9081 10.5208 16.1125 10.0737C16.3296 9.61381 16.5532 9.19225 16.7831 8.80902C17.0258 8.41302 17.2622 8.08088 17.4921 7.81262C17.7987 7.44217 18.118 7.14197 18.4502 6.91203C18.7312 6.72041 19.025 6.59267 19.3316 6.5288C19.651 6.45215 19.9575 6.54157 20.2514 6.79706ZM15.7867 13.4078C15.9656 12.5391 16.1955 11.7535 16.4765 11.0509C16.7576 10.3356 17.0322 9.72239 17.3005 9.21141C17.6198 8.61102 17.952 8.0745 18.2969 7.60185C17.6965 8.18947 17.2302 8.8218 16.8981 9.49884C16.5659 10.1631 16.3168 10.789 16.1508 11.3767C15.9592 12.0665 15.8378 12.7435 15.7867 13.4078ZM23.5417 2.86894C23.7078 2.47294 23.9058 2.13442 24.1358 1.85338C24.3274 1.61067 24.5637 1.40628 24.8447 1.24021C25.1258 1.06137 25.4451 1.02305 25.8028 1.12525C25.9433 1.16357 26.0775 1.24021 26.2052 1.35518C26.3074 1.45738 26.3968 1.5979 26.4735 1.77674C26.5629 1.9428 26.6076 2.16636 26.6076 2.44739C26.5948 2.60068 26.5693 2.77314 26.5309 2.96475C26.5054 3.15637 26.4607 3.36715 26.3968 3.59708C26.2691 4.01864 26.0838 4.47851 25.8411 4.97671C25.5984 5.46214 25.3174 5.94118 24.998 6.41383C24.6787 6.88648 24.3274 7.3272 23.9441 7.73598C23.5609 8.14476 23.1585 8.47689 22.737 8.73238C22.5198 9.34555 22.3282 9.914 22.1621 10.4378C21.9961 10.9615 21.8555 11.4342 21.7406 11.8557C21.945 11.498 22.1877 11.0956 22.4687 10.6485C22.7625 10.1887 23.0691 9.7671 23.3885 9.38387C23.7206 8.98786 24.0527 8.66212 24.3849 8.40663C24.7298 8.15114 25.0555 8.02979 25.3621 8.04256C25.6176 8.06811 25.8156 8.17669 25.9561 8.36831C26.0711 8.53437 26.1349 8.78986 26.1477 9.13477C26.1605 9.47968 26.0455 9.97788 25.8028 10.6294C25.6878 10.9487 25.5537 11.2872 25.4004 11.6449C25.2471 11.9898 25.113 12.322 24.998 12.6413C24.7298 13.395 24.5637 13.9763 24.4998 14.385C24.436 14.7938 24.4551 15.0301 24.5573 15.094C24.5701 15.1068 24.5829 15.1132 24.5956 15.1132C24.634 15.1004 24.6787 15.1004 24.7298 15.1132C24.7936 15.1259 24.8575 15.1643 24.9214 15.2281C24.9725 15.2792 25.0044 15.3367 25.0172 15.4006C25.0427 15.4772 25.0236 15.5667 24.9597 15.6689C24.8575 15.8094 24.7298 15.8988 24.5765 15.9371C24.436 15.9754 24.2954 15.9818 24.1549 15.9563C24.0144 15.9307 23.8803 15.8796 23.7525 15.803C23.6248 15.7391 23.5226 15.6561 23.4459 15.5539C23.3437 15.4261 23.2735 15.2665 23.2352 15.0748C23.2096 14.896 23.1968 14.7236 23.1968 14.5575C23.1968 14.3659 23.2096 14.1679 23.2352 13.9635C23.3246 13.2481 23.4715 12.5838 23.6759 11.9707C23.8803 11.3575 24.0655 10.8657 24.2316 10.4952C24.3976 10.1248 24.5126 9.85013 24.5765 9.67129C24.6403 9.47968 24.6467 9.35193 24.5956 9.28806C24.5701 9.26251 24.5318 9.26251 24.4807 9.28806C24.4296 9.30084 24.3785 9.32638 24.3274 9.36471C24.2763 9.4158 24.2124 9.47329 24.1358 9.53716C23.8292 9.83097 23.5162 10.2078 23.1968 10.6677C22.8775 11.1148 22.5837 11.5619 22.3154 12.009C22.0471 12.4433 21.8236 12.8329 21.6448 13.1779C21.4659 13.5228 21.3637 13.7208 21.3382 13.7719C21.2998 13.8868 21.236 13.9571 21.1466 13.9826C21.0699 13.9954 20.9805 13.9826 20.8783 13.9443C20.7889 13.8932 20.6995 13.8293 20.61 13.7527C20.5206 13.6633 20.444 13.5739 20.3801 13.4844C20.3162 13.4078 20.2779 13.3056 20.2651 13.1779C20.2524 13.0501 20.2524 12.916 20.2651 12.7755C20.2779 12.6222 20.3034 12.4561 20.3418 12.2773C20.4312 11.7791 20.5398 11.2745 20.6675 10.7635C20.7953 10.2525 20.9358 9.74155 21.0891 9.23058C21.1274 9.09006 21.1593 8.97509 21.1849 8.88567C21.2232 8.79625 21.2551 8.70683 21.2807 8.61741C21.4723 8.02979 21.6703 7.46133 21.8747 6.91203C22.0791 6.34996 22.2771 5.82621 22.4687 5.34078C22.6731 4.84258 22.8647 4.38271 23.0435 3.96115C23.2352 3.5396 23.4012 3.17553 23.5417 2.86894ZM25.2471 10.6485C25.1449 10.904 25.0619 11.134 24.998 11.3383C24.9469 11.53 24.9086 11.696 24.8831 11.8365C24.8447 12.0026 24.8192 12.1495 24.8064 12.2773C24.9086 11.9324 25.0427 11.5683 25.2088 11.1851C25.3749 10.8018 25.5282 10.393 25.6687 9.95871C25.7326 9.74155 25.7645 9.5691 25.7645 9.44135C25.7773 9.30084 25.7709 9.18587 25.7453 9.09645C25.7198 8.99425 25.6815 8.9176 25.6304 8.86651C25.6559 9.16032 25.6304 9.43497 25.5537 9.69045C25.4898 9.93317 25.3876 10.2525 25.2471 10.6485ZM24.9789 3.57792C24.6595 4.17832 24.3529 4.79787 24.0591 5.43659C23.7781 6.07531 23.5098 6.72041 23.2543 7.37191C23.5865 7.027 23.9314 6.5799 24.289 6.0306C24.6595 5.4813 25.0108 4.79149 25.3429 3.96115C25.4962 3.66734 25.6112 3.40547 25.6878 3.17553C25.7517 2.98391 25.79 2.81785 25.8028 2.67733C25.8284 2.52404 25.7836 2.47933 25.6687 2.5432C25.6304 2.56875 25.5856 2.60707 25.5345 2.65817C25.3557 2.91366 25.2216 3.12443 25.1322 3.2905C25.0811 3.39269 25.03 3.4885 24.9789 3.57792ZM24.0208 2.96475C23.7908 3.36076 23.5609 3.79509 23.331 4.26774C23.1394 4.67652 22.935 5.14278 22.7178 5.66653C22.5134 6.19028 22.341 6.74596 22.2004 7.33358C22.4176 6.80984 22.6412 6.29247 22.8711 5.7815C23.0627 5.3344 23.2607 4.86175 23.4651 4.36354C23.6823 3.86535 23.8675 3.39908 24.0208 2.96475ZM37.1517 2.15997C37.2028 2.0961 37.2539 2.03222 37.305 1.96835C37.4072 1.85338 37.5157 1.7448 37.6307 1.64261C37.7712 1.52764 37.9501 1.41267 38.1672 1.2977C38.3972 1.18273 38.6591 1.13163 38.9529 1.14441C39.0551 1.14441 39.1509 1.15718 39.2403 1.18273C39.3169 1.20828 39.3872 1.2466 39.4511 1.2977C39.5149 1.33602 39.5596 1.39989 39.5852 1.48931C40.275 1.32325 40.9712 1.17634 41.6738 1.0486C42.3764 0.908081 43.0534 0.805886 43.7049 0.742014C44.3564 0.678142 44.9696 0.658981 45.5444 0.68453C46.1193 0.697304 46.6239 0.761176 47.0582 0.876145C47.4925 0.991115 47.8374 1.16357 48.0929 1.39351C48.3612 1.62345 48.5081 1.91726 48.5336 2.27494C48.5336 2.38991 48.5272 2.50488 48.5145 2.61985C48.4889 2.72204 48.457 2.82423 48.4187 2.92643C48.3931 3.02862 48.342 3.13082 48.2654 3.23302C48.1887 3.33521 48.0929 3.39269 47.978 3.40547C47.8758 3.40547 47.7544 3.33521 47.6139 3.19469C47.4989 3.07972 47.2051 2.96475 46.7324 2.84978C46.2598 2.72204 45.6211 2.63901 44.8163 2.60068C44.0243 2.56236 43.079 2.58791 41.9804 2.67733C40.8946 2.76675 39.6746 2.97114 38.3205 3.2905C37.8734 3.92922 37.4136 4.67013 36.9409 5.51324C36.4683 6.34357 36.0339 7.14197 35.6379 7.90843C35.178 8.80264 34.7246 9.70961 34.2774 10.6294C33.6004 11.9835 33.0575 13.1459 32.6487 14.1168C32.2527 15.0748 31.9653 15.8988 31.7864 16.5886C31.531 17.5595 31.3777 18.2876 31.3266 18.773C31.2755 19.2712 31.2627 19.6289 31.2882 19.8461C31.3266 20.0632 31.3777 20.1974 31.4415 20.2485C31.5054 20.3123 31.531 20.389 31.5182 20.4784C31.4926 20.5806 31.4479 20.6572 31.3841 20.7083C31.333 20.7594 31.2755 20.7978 31.2116 20.8233C31.135 20.8489 31.0583 20.8616 30.9817 20.8616C30.7517 20.8489 30.5665 20.7722 30.426 20.6317C30.2855 20.4912 30.1769 20.3123 30.1002 20.0952C30.0364 19.878 29.9917 19.6353 29.9661 19.367C29.9533 19.0988 29.9533 18.8241 29.9661 18.5431C30.0044 17.8916 30.1258 17.1571 30.3302 16.3395C30.5346 15.3687 30.8539 14.3212 31.2882 13.197C31.7354 12.0601 32.2272 10.936 32.7637 9.82458C33.3002 8.70044 33.8559 7.62739 34.4307 6.60545C35.0056 5.5835 35.5229 4.69568 35.9828 3.94199C34.7437 4.40187 33.709 4.85536 32.8787 5.30246C32.0611 5.73679 31.3968 6.16473 30.8859 6.58628C30.3877 6.99506 30.0172 7.39107 29.7745 7.7743C29.5445 8.14476 29.3976 8.50244 29.3338 8.84735C29.2699 9.17948 29.2635 9.49245 29.3146 9.78626C29.3785 10.0673 29.4551 10.3228 29.5445 10.5527C29.634 10.7699 29.7106 10.9551 29.7745 11.1084C29.8384 11.2617 29.8447 11.3767 29.7936 11.4533C29.6915 11.5938 29.5445 11.6513 29.3529 11.6258C29.1741 11.6002 29.0144 11.53 28.8739 11.415C28.7717 11.3383 28.6887 11.2489 28.6248 11.1467C28.5609 11.0445 28.5098 10.9487 28.4715 10.8593C28.4204 10.7571 28.3821 10.6485 28.3565 10.5336C28.1649 9.86929 28.1266 9.24974 28.2416 8.67489C28.3565 8.10005 28.5737 7.56352 28.8931 7.06532C29.2252 6.55435 29.6404 6.08808 30.1386 5.66653C30.6368 5.24498 31.1669 4.86175 31.729 4.51684C32.3038 4.17193 32.8914 3.86535 33.4918 3.59708C34.0922 3.32882 34.6607 3.0925 35.1972 2.88811C35.21 2.87533 35.2164 2.86894 35.2164 2.86894C35.2291 2.86894 35.2419 2.86256 35.2547 2.84978C35.5357 2.73481 35.8359 2.61984 36.1553 2.50488C36.4746 2.38991 36.8068 2.27494 37.1517 2.15997ZM33.3577 4.2869C33.3832 4.27412 33.4024 4.26774 33.4152 4.26774C33.4407 4.25496 33.4663 4.24219 33.4918 4.22941C33.5301 4.20387 33.5749 4.17832 33.626 4.15277C33.7282 4.11445 33.8176 4.07612 33.8942 4.0378C33.9836 3.9867 34.0667 3.94199 34.1433 3.90367C34.8076 3.59708 35.3249 3.36715 35.6954 3.21385C35.7976 3.17553 35.8806 3.14359 35.9445 3.11804C36.0084 3.0925 36.0659 3.06695 36.117 3.0414C36.1425 3.02862 36.1617 3.02224 36.1744 3.02224C36.2 3.02224 36.2192 3.01585 36.2319 3.00308C36.2447 3.00308 36.2575 2.99669 36.2702 2.98391C36.1425 3.00946 36.0403 3.03501 35.9637 3.06056C35.9381 3.07334 35.9126 3.07972 35.887 3.07972C35.8615 3.07972 35.8359 3.08611 35.8104 3.09888C35.7848 3.11166 35.7593 3.11804 35.7337 3.11804C35.6826 3.14359 35.6571 3.15637 35.6571 3.15637C35.5549 3.18192 35.4463 3.21385 35.3313 3.25218C35.2291 3.27772 35.1269 3.30966 35.0247 3.34798C34.8076 3.42463 34.5904 3.50766 34.3733 3.59708C34.1561 3.67373 33.9389 3.75676 33.7218 3.84618L33.5685 3.92283C33.5429 3.9356 33.5174 3.94838 33.4918 3.96115C33.4663 3.97393 33.4407 3.9867 33.4152 3.99948C33.3513 4.02503 33.2938 4.05057 33.2427 4.07612C33.2044 4.10167 33.1533 4.12722 33.0894 4.15277C32.9872 4.19109 32.885 4.24219 32.7828 4.30606C32.7573 4.31884 32.7318 4.33161 32.7062 4.34438C32.6807 4.35716 32.6551 4.36993 32.6296 4.38271C32.604 4.40826 32.5529 4.4338 32.4763 4.45935C32.2846 4.57432 32.093 4.68929 31.9014 4.80426C31.7226 4.91923 31.5437 5.0342 31.3649 5.14917C31.1861 5.27691 31.02 5.39827 30.8667 5.51324C30.7262 5.62821 30.5857 5.74956 30.4451 5.87731C30.3174 5.99228 30.196 6.10725 30.0811 6.22221C29.9789 6.32441 29.8831 6.4266 29.7936 6.5288C29.7042 6.63099 29.6276 6.72041 29.5637 6.79706C29.5126 6.87371 29.4615 6.94397 29.4104 7.00784C29.3849 7.04616 29.3593 7.09087 29.3338 7.14197C29.321 7.15474 29.3146 7.16752 29.3146 7.18029C29.3146 7.19307 29.3082 7.19945 29.2954 7.19945C29.321 7.16113 29.3465 7.12919 29.3721 7.10365C29.3976 7.06532 29.4232 7.03339 29.4487 7.00784C29.4615 6.99506 29.4679 6.98229 29.4679 6.96952C29.4807 6.95674 29.4935 6.94397 29.5062 6.93119L29.5829 6.85455C29.6467 6.79067 29.6978 6.73319 29.7362 6.68209C29.7873 6.63099 29.8447 6.5799 29.9086 6.5288C30.113 6.34996 30.3302 6.17112 30.5601 5.99228C30.7773 5.81343 30.9944 5.65376 31.2116 5.51324C31.4288 5.37272 31.6459 5.23859 31.8631 5.11085C32.0803 4.9831 32.2846 4.86813 32.4763 4.76594C32.6807 4.65097 32.8787 4.54239 33.0703 4.44019C33.1214 4.40187 33.1725 4.37632 33.2236 4.36354C33.2491 4.35077 33.2683 4.338 33.281 4.32522C33.3066 4.31245 33.3321 4.29967 33.3577 4.2869ZM36.1744 4.65097C35.5996 5.57072 35.0631 6.47131 34.5649 7.35275C34.3094 7.78707 34.0731 8.21501 33.8559 8.63657C33.6387 9.05812 33.428 9.47329 33.2236 9.88207C32.4188 11.5044 31.7992 12.9479 31.3649 14.2126C31.2627 14.5319 31.1669 14.8321 31.0775 15.1132C30.9881 15.3942 30.9114 15.6625 30.8475 15.918C30.822 16.0457 30.7964 16.1671 30.7709 16.282C30.7453 16.397 30.7198 16.512 30.6942 16.6269C30.6815 16.678 30.6687 16.7291 30.6559 16.7802C30.6559 16.8313 30.6495 16.8824 30.6368 16.9335C30.6368 16.9591 30.6304 16.9782 30.6176 16.991C30.6176 17.0165 30.6176 17.0421 30.6176 17.0676C30.6176 17.0932 30.6112 17.1187 30.5984 17.1443C30.5984 17.1698 30.5984 17.1954 30.5984 17.2209C30.5729 17.3998 30.5537 17.5531 30.5409 17.6808C30.5409 17.8213 30.5409 17.9363 30.5409 18.0257V18.2365V18.3131C30.5537 18.211 30.5601 18.1151 30.5601 18.0257C30.5729 17.9491 30.5857 17.8597 30.5984 17.7575L30.7134 17.1826C30.739 17.0804 30.7581 16.9846 30.7709 16.8952C30.7964 16.8058 30.822 16.71 30.8475 16.6078L31.02 16.0329C31.2627 15.2792 31.5437 14.5064 31.8631 13.7144C32.0292 13.3311 32.1888 12.9479 32.3421 12.5647C32.5082 12.1815 32.6743 11.8046 32.8403 11.4342C33.0192 11.0637 33.1852 10.6996 33.3385 10.3419C33.5046 9.98426 33.6707 9.63936 33.8367 9.30722C34.1561 8.63018 34.4563 8.01063 34.7373 7.44855C35.0184 6.87371 35.2675 6.38189 35.4846 5.97311C35.689 5.55156 35.8615 5.22581 36.002 4.99588L36.1744 4.65097ZM48.1696 2.48571C48.1951 2.33242 48.176 2.17913 48.1121 2.02584C48.0482 1.85977 47.9588 1.71925 47.8438 1.60428C47.7799 1.54041 47.7097 1.48931 47.633 1.45099C47.5692 1.39989 47.5053 1.35518 47.4414 1.31686C47.2754 1.22744 47.1285 1.17634 47.0007 1.16357C46.8602 1.12524 46.7261 1.0997 46.5983 1.08692C46.4706 1.07415 46.362 1.06776 46.2726 1.06776H46.0618H46.0043H45.9852C46.0362 1.08053 46.0873 1.09331 46.1384 1.10608C46.1895 1.10608 46.2406 1.11247 46.2917 1.12525L46.5792 1.18273C46.6814 1.20828 46.7708 1.23383 46.8474 1.25938C46.9368 1.28492 47.0199 1.31047 47.0965 1.33602C47.1732 1.37435 47.2434 1.41267 47.3073 1.45099C47.3839 1.47654 47.4542 1.50848 47.5181 1.5468C47.5819 1.58512 47.6394 1.62345 47.6905 1.66177C47.7416 1.70009 47.7863 1.7448 47.8247 1.7959C47.9141 1.88532 47.978 1.97474 48.0163 2.06416C48.0546 2.14081 48.0865 2.21107 48.1121 2.27494C48.1249 2.31326 48.1312 2.3452 48.1312 2.37075C48.144 2.38352 48.1504 2.40268 48.1504 2.42823C48.1504 2.441 48.1568 2.45378 48.1696 2.46655V2.48571ZM36.5295 9.47968C36.5679 9.37748 36.6062 9.27529 36.6445 9.17309C36.6828 9.05812 36.7148 8.96232 36.7403 8.88567C36.7786 8.79625 36.817 8.70683 36.8553 8.61741C36.8808 8.54076 36.9319 8.45134 37.0086 8.34915C37.0852 8.24695 37.1938 8.21501 37.3343 8.25334C37.411 8.26611 37.5132 8.31082 37.6409 8.38747C37.7686 8.45134 37.8836 8.54715 37.9858 8.67489C38.1008 8.80264 38.1774 8.9687 38.2157 9.17309C38.2541 9.37748 38.2285 9.62019 38.1391 9.90123C38.0497 10.1439 37.9539 10.3867 37.8517 10.6294C37.7623 10.8721 37.6728 11.1084 37.5834 11.3383C37.3152 12.0793 37.1491 12.6541 37.0852 13.0629C37.0213 13.4717 37.0405 13.7144 37.1427 13.791H37.1619C37.213 13.8166 37.2513 13.8549 37.2768 13.906C37.3279 14.0082 37.3279 14.1104 37.2768 14.2126C37.2385 14.2764 37.1682 14.3339 37.0661 14.385C36.9766 14.4361 36.8744 14.4745 36.7595 14.5C36.6445 14.5128 36.5231 14.5064 36.3954 14.4808C36.2804 14.4553 36.1718 14.4042 36.0697 14.3275C36.0186 14.302 35.9675 14.2637 35.9164 14.2126C35.878 14.1487 35.8461 14.0848 35.8206 14.021C35.7822 13.9571 35.7503 13.8868 35.7247 13.8102C35.6864 13.708 35.6545 13.6058 35.6289 13.5036C35.6162 13.4014 35.6034 13.312 35.5906 13.2353C35.5778 13.1459 35.5778 13.0629 35.5906 12.9862C35.5906 12.7691 35.6225 12.5136 35.6864 12.2198C35.7503 11.926 35.8269 11.6258 35.9164 11.3192C36.0058 10.9998 36.1016 10.6805 36.2038 10.3611C36.3188 10.0417 36.4273 9.74794 36.5295 9.47968ZM36.6637 10.3611C36.7659 10.0417 36.8553 9.7671 36.9319 9.53716C37.0213 9.30722 37.0916 9.08367 37.1427 8.86651C36.9 9.39026 36.6956 9.89484 36.5295 10.3803C36.389 10.789 36.2613 11.217 36.1463 11.6641C36.0441 12.1112 36.0186 12.488 36.0697 12.7946C36.1207 12.5519 36.1718 12.2964 36.2229 12.0282C36.274 11.7982 36.3315 11.5427 36.3954 11.2617C36.472 10.9679 36.5615 10.6677 36.6637 10.3611ZM39.4804 5.58988C39.6082 5.65376 39.6912 5.7304 39.7295 5.81982C39.7678 5.90924 39.7742 5.99866 39.7487 6.08808C39.7359 6.15196 39.704 6.22221 39.6529 6.29886C39.6273 6.33718 39.6018 6.36912 39.5762 6.39467C39.3974 6.59906 39.2441 6.81622 39.1163 7.04616C38.9886 7.26333 38.8928 7.42939 38.8289 7.54436C38.8034 7.58268 38.765 7.64017 38.7139 7.71682C38.6756 7.79346 38.6245 7.87011 38.5607 7.94675C38.4968 8.01063 38.4265 8.06811 38.3499 8.11921C38.2732 8.15753 38.1902 8.16392 38.1008 8.13837C37.8581 8.01063 37.6856 7.87011 37.5834 7.71682C37.5451 7.66572 37.5259 7.58907 37.5259 7.48688C37.5387 7.38468 37.5515 7.28249 37.5643 7.18029C37.5898 7.0781 37.6154 6.98868 37.6409 6.91203C37.6664 6.82261 37.6856 6.76512 37.6984 6.73958C37.7239 6.63738 37.7431 6.56074 37.7559 6.50964C37.7814 6.45854 37.807 6.40744 37.8325 6.35635C37.9092 6.13918 38.0177 5.96673 38.1583 5.83898C38.2988 5.71124 38.4457 5.62182 38.599 5.57072C38.765 5.50685 38.9247 5.4813 39.078 5.49408C39.2313 5.50685 39.3654 5.53879 39.4804 5.58988ZM37.7942 7.35275C37.8708 7.12281 37.9603 6.91842 38.0625 6.73958C38.1774 6.54796 38.286 6.38189 38.3882 6.24138C38.5032 6.08808 38.6181 5.94757 38.7331 5.81982C38.5543 5.84537 38.4074 5.94118 38.2924 6.10725C38.1774 6.27331 38.0816 6.44577 38.005 6.62461C37.9155 6.85455 37.8453 7.09726 37.7942 7.35275ZM39.7798 14.5766C39.767 14.6022 39.7543 14.6341 39.7415 14.6725C39.7159 14.7363 39.684 14.7874 39.6457 14.8257C39.5946 14.8896 39.5371 14.9279 39.4732 14.9407C39.4221 14.9663 39.371 14.9854 39.3199 14.9982C39.2688 15.011 39.2113 15.0174 39.1475 15.0174C38.9686 15.0046 38.8281 14.9535 38.7259 14.8641C38.6237 14.7746 38.5407 14.6661 38.4768 14.5383C38.4129 14.4106 38.3682 14.2701 38.3427 14.1168C38.3171 13.9635 38.3044 13.8166 38.3044 13.6761C38.3171 13.2034 38.4129 12.6094 38.5918 11.894C38.6557 11.6385 38.7387 11.3511 38.8409 11.0318C38.9431 10.6996 39.0581 10.3611 39.1858 10.0162C39.3263 9.65852 39.4796 9.30084 39.6457 8.94315C39.8117 8.5727 39.9906 8.21502 40.1822 7.87011C40.3355 7.5763 40.5207 7.28249 40.7379 6.98868C40.9678 6.69487 41.2552 6.48409 41.6002 6.35635C41.8173 6.25415 42.0345 6.23499 42.2516 6.29886C42.4688 6.36273 42.6093 6.47131 42.6732 6.62461C42.7115 6.7268 42.7051 6.80984 42.654 6.87371C42.6285 6.91203 42.6029 6.93758 42.5774 6.95035C42.3602 7.19307 42.1367 7.51242 41.9067 7.90843C41.7023 8.24056 41.4724 8.6685 41.2169 9.19225C40.9614 9.716 40.6996 10.3547 40.4313 11.1084C40.4568 11.0445 40.4824 10.9871 40.5079 10.936C40.5335 10.8849 40.559 10.8274 40.5846 10.7635C40.9423 10.0226 41.2744 9.42219 41.581 8.96232C41.9003 8.48966 42.1878 8.11921 42.4433 7.85095C42.6987 7.58268 42.9159 7.39746 43.0948 7.29526C43.2864 7.18029 43.4397 7.11003 43.5546 7.08448C43.6057 7.07171 43.6632 7.06532 43.7271 7.06532C43.8037 7.05255 43.8931 7.05894 43.9953 7.08448C44.0592 7.09726 44.1231 7.12281 44.187 7.16113C44.2381 7.18668 44.2892 7.23139 44.3403 7.29526C44.4041 7.34636 44.4552 7.41662 44.4935 7.50604C44.6596 7.85095 44.6532 8.32998 44.4744 8.94315C44.8448 8.34276 45.1834 7.89566 45.4899 7.60185C45.7965 7.29526 46.0584 7.0781 46.2756 6.95035C46.5311 6.80984 46.761 6.74596 46.9654 6.75874C47.1953 6.79706 47.3678 6.90564 47.4827 7.08448C47.5849 7.25055 47.6296 7.49965 47.6169 7.83178C47.6169 8.16392 47.4955 8.64934 47.2528 9.28806C47.1251 9.60742 46.9909 9.94594 46.8504 10.3036C46.7099 10.6485 46.5758 10.9807 46.448 11.3C46.2309 11.9132 46.084 12.4178 46.0073 12.8138C45.9307 13.197 45.9051 13.4653 45.9307 13.6186L45.969 13.791C45.9818 13.8677 45.9881 13.9571 45.9881 14.0593C45.9881 14.1615 45.969 14.2573 45.9307 14.3467C45.9051 14.4361 45.854 14.5064 45.7774 14.5575C45.7135 14.6086 45.6113 14.6214 45.4708 14.5958C45.3558 14.5575 45.2472 14.5064 45.145 14.4425C45.0428 14.3786 44.9598 14.302 44.8959 14.2126C44.7937 14.0848 44.7235 13.9315 44.6852 13.7527C44.6596 13.5611 44.6468 13.3822 44.6468 13.2162C44.6468 13.0246 44.6596 12.8266 44.6852 12.6222C44.7746 11.9068 44.9215 11.2425 45.1259 10.6294C45.3303 10.0162 45.5155 9.52439 45.6816 9.15393C45.8476 8.78347 45.969 8.50244 46.0456 8.31082C46.135 8.11921 46.135 7.99785 46.0456 7.94675C46.0073 7.93398 45.9562 7.94675 45.8923 7.98508C45.8412 8.01063 45.7582 8.10005 45.6432 8.25334C45.5283 8.40663 45.3622 8.64296 45.145 8.96232C44.9406 9.2689 44.6596 9.69045 44.3019 10.227C43.9442 10.7763 43.6568 11.2872 43.4397 11.7599C43.2353 12.2198 43.0756 12.6222 42.9606 12.9671C42.8201 13.3759 42.7243 13.7463 42.6732 14.0784C42.6604 14.2062 42.6157 14.2956 42.5391 14.3467C42.4752 14.3978 42.3985 14.4297 42.3091 14.4425C42.2069 14.4681 42.092 14.4681 41.9642 14.4425C41.7726 14.4042 41.6257 14.3339 41.5235 14.2317C41.4213 14.1168 41.3447 13.9954 41.2936 13.8677C41.2552 13.7272 41.2361 13.593 41.2361 13.4653C41.2489 13.3248 41.2616 13.2098 41.2744 13.1204C41.3511 12.6988 41.4916 12.2262 41.696 11.7024C41.9003 11.1787 42.1047 10.6869 42.3091 10.227C42.5263 9.7671 42.7179 9.37748 42.884 9.05812C43.05 8.72599 43.1395 8.53437 43.1522 8.48328C43.1778 8.4194 43.1714 8.38108 43.1331 8.36831C43.1075 8.35553 43.0373 8.40663 42.9223 8.5216C42.8073 8.63657 42.6476 8.83457 42.4433 9.11561C42.2389 9.39664 41.977 9.79265 41.6576 10.3036C41.3894 10.7252 41.153 11.1467 40.9487 11.5683C40.7443 11.9898 40.5654 12.3922 40.4121 12.7755C40.2588 13.1459 40.1311 13.4908 40.0289 13.8102C39.9267 14.1168 39.8437 14.3723 39.7798 14.5766ZM38.8601 12.5455C39.1028 11.8046 39.3583 11.0829 39.6265 10.3803C39.7415 10.0865 39.8628 9.77987 39.9906 9.46052C40.1311 9.14116 40.2716 8.83457 40.4121 8.54076C40.5527 8.23418 40.6932 7.94675 40.8337 7.67849C40.987 7.41023 41.1403 7.16752 41.2936 6.95035C40.9742 7.29526 40.6676 7.72959 40.3738 8.25334C40.1183 8.70044 39.8501 9.28167 39.569 9.99704C39.3008 10.6996 39.0644 11.5491 38.8601 12.5455ZM42.0025 12.4497C42.1558 12.0282 42.3155 11.6066 42.4816 11.1851C42.6221 10.8146 42.7754 10.425 42.9415 10.0162C43.1075 9.59465 43.2736 9.21141 43.4397 8.86651C43.1842 9.27529 42.9542 9.69045 42.7498 10.112C42.571 10.4697 42.4049 10.8593 42.2516 11.2809C42.1111 11.6896 42.0281 12.0793 42.0025 12.4497ZM46.6971 9.30722C46.5949 9.56271 46.5119 9.79265 46.448 9.99704C46.3969 10.1887 46.3586 10.3547 46.3331 10.4952C46.2947 10.6613 46.2692 10.8082 46.2564 10.936C46.3586 10.591 46.4927 10.2334 46.6588 9.86291C46.8249 9.47968 46.9782 9.06451 47.1187 8.61741C47.1825 8.40024 47.2145 8.22779 47.2145 8.10005C47.2273 7.95953 47.2209 7.84456 47.1953 7.75514C47.1698 7.65294 47.1314 7.5763 47.0804 7.5252C47.1187 7.81901 47.0995 8.09366 47.0229 8.34915C46.959 8.59186 46.8504 8.91122 46.6971 9.30722ZM52.4239 11.2234C52.5644 11.2362 52.641 11.3639 52.6538 11.6066C52.6794 11.8365 52.6474 12.0856 52.558 12.3539C52.4558 12.6349 52.3089 12.916 52.1173 13.197C51.9385 13.4653 51.7085 13.708 51.4275 13.9252C51.1592 14.1295 50.8399 14.2892 50.4694 14.4042C50.1117 14.5192 49.7093 14.5575 49.2622 14.5192C48.8407 14.4808 48.4702 14.3531 48.1509 14.1359C47.8826 13.9571 47.6399 13.6888 47.4227 13.3311C47.2183 12.9607 47.1481 12.4369 47.2119 11.7599C47.2503 11.3256 47.3525 10.8849 47.5185 10.4378C47.659 10.0545 47.8698 9.64574 48.1509 9.21141C48.4447 8.76431 48.8471 8.34276 49.358 7.94675C49.6007 7.76791 49.8498 7.61462 50.1053 7.48688C50.3225 7.38468 50.5588 7.30804 50.8143 7.25694C51.0698 7.19307 51.3061 7.21223 51.5233 7.31442C51.9065 7.48049 52.1365 7.72959 52.2131 8.06172C52.2897 8.39386 52.2706 8.69405 52.1556 8.96232C52.0917 9.10283 52.0023 9.27529 51.8874 9.47968C51.7852 9.67129 51.6191 9.87568 51.3892 10.0928C51.172 10.31 50.8718 10.5272 50.4886 10.7443C50.1053 10.9615 49.6135 11.1531 49.0131 11.3192C48.8598 11.728 48.764 12.0984 48.7257 12.4306C48.7002 12.7244 48.7193 13.0054 48.7832 13.2737C48.8598 13.5291 49.0578 13.708 49.3772 13.8102C49.6838 13.9124 49.9712 13.9124 50.2395 13.8102C50.5205 13.708 50.7696 13.5547 50.9868 13.3503C51.2167 13.1459 51.4083 12.9096 51.5616 12.6413C51.7277 12.3731 51.849 12.124 51.9257 11.894C51.9512 11.8429 51.9768 11.7791 52.0023 11.7024C52.0406 11.6258 52.079 11.5491 52.1173 11.4725C52.1684 11.3958 52.2195 11.3383 52.2706 11.3C52.3217 11.2489 52.3728 11.2234 52.4239 11.2234ZM51.1017 9.38387C51.1784 9.28167 51.2231 9.17948 51.2359 9.07728C51.2614 8.97509 51.2486 8.89206 51.1975 8.82818C51.1592 8.76431 51.0826 8.73238 50.9676 8.73238C50.8526 8.73238 50.7121 8.78347 50.546 8.88567C50.38 8.98786 50.2139 9.12838 50.0478 9.30722C49.8946 9.47329 49.7604 9.63936 49.6455 9.80542C49.5305 9.97149 49.4347 10.1184 49.358 10.2461C49.2942 10.3611 49.275 10.4186 49.3005 10.4186C49.4027 10.4186 49.5369 10.3867 49.7029 10.3228C49.8818 10.2589 50.0542 10.1759 50.2203 10.0737C50.3991 9.95872 50.5652 9.84375 50.7185 9.72878C50.8846 9.60103 51.0123 9.48606 51.1017 9.38387ZM47.6335 11.6449C47.7485 11.2745 47.9018 10.904 48.0934 10.5336C48.2594 10.2142 48.4638 9.87568 48.7065 9.518C48.962 9.16032 49.2686 8.83457 49.6263 8.54076C50.1117 8.14476 50.5077 7.90204 50.8143 7.81262C51.1337 7.7232 51.3764 7.71043 51.5424 7.7743C51.4913 7.7232 51.4339 7.6721 51.37 7.62101C51.2295 7.53159 51.0379 7.50604 50.7951 7.54436C50.6419 7.56991 50.4183 7.6721 50.1245 7.85095C49.8435 8.02979 49.5433 8.28527 49.2239 8.61741C48.9045 8.94954 48.598 9.37109 48.3041 9.88207C48.0231 10.3803 47.7996 10.9679 47.6335 11.6449Z" fill="white"/>
</svg>
