<svg width="49" height="49" viewBox="0 0 49 49" fill="none" xmlns="http://www.w3.org/2000/svg">
<rect x="0.646973" y="0.835938" width="48" height="48" rx="4" fill="white"/>
<g clip-path="url(#clip0_1476_917)">
<mask id="mask0_1476_917" style="mask-type:luminance" maskUnits="userSpaceOnUse" x="3" y="3" width="44" height="44">
<path d="M3.05566 3.2446H46.4134V46.6023H3.05566V3.2446Z" fill="white"/>
</mask>
<g mask="url(#mask0_1476_917)">
<path d="M37.667 18.0148C38.8081 20.0969 39.4574 22.4862 39.4574 25.0278C39.4574 30.4208 36.5348 35.1293 32.1888 37.6631L36.6536 24.7539C37.4876 22.6684 37.7653 21.0008 37.7653 19.5181C37.7653 18.9799 37.7298 18.4804 37.667 18.0148ZM26.8541 18.174C27.7342 18.1277 28.5272 18.0351 28.5272 18.0351C29.3148 17.9419 29.2219 16.7843 28.4339 16.8304C28.4339 16.8304 26.0661 17.0162 24.5376 17.0162C23.1013 17.0162 20.6877 16.8304 20.6877 16.8304C19.8993 16.7843 19.8069 17.9885 20.5949 18.0351C20.5949 18.0351 21.3406 18.1277 22.1283 18.174L24.4056 24.4142L21.2061 34.0085L15.8831 18.174C16.7638 18.1277 17.556 18.0351 17.556 18.0351C18.3431 17.9419 18.2502 16.7843 17.4625 16.8304C17.4625 16.8304 15.0952 17.0162 13.5665 17.0162C13.2923 17.0162 12.969 17.0095 12.6257 16.9985C15.2396 13.0303 19.7323 10.4097 24.8395 10.4097C28.645 10.4097 32.1102 11.8648 34.7108 14.2477C34.6478 14.2439 34.5864 14.236 34.5215 14.236C33.0856 14.236 32.0667 15.4868 32.0667 16.8304C32.0667 18.0351 32.7618 19.0544 33.5026 20.2589C34.0585 21.2326 34.7079 22.4833 34.7079 24.2905C34.7079 25.5415 34.2266 26.9935 33.5955 29.0162L32.137 33.8879L26.8541 18.174ZM24.8395 39.6471C23.4046 39.6471 22.0197 39.4366 20.7097 39.0514L25.0962 26.3065L29.5893 38.6168C29.6189 38.6891 29.6552 38.7556 29.6939 38.8183C28.1745 39.3532 26.5418 39.6471 24.8395 39.6471ZM10.2214 25.0278C10.2214 22.9084 10.676 20.8966 11.4873 19.0786L18.4604 38.1839C13.5836 35.8147 10.2214 30.814 10.2214 25.0278ZM24.8395 8.76915C15.8743 8.76915 8.58057 16.0627 8.58057 25.0278C8.58057 33.9932 15.8743 41.2876 24.8395 41.2876C33.8046 41.2876 41.0987 33.9932 41.0987 25.0278C41.0987 16.0627 33.8046 8.76915 24.8395 8.76915Z" fill="#3F3C3C"/>
</g>
</g>
<defs>
<clipPath id="clip0_1476_917">
<rect width="43.3577" height="43.3577" fill="white" transform="translate(3.05566 3.24463)"/>
</clipPath>
</defs>
</svg>
